  <svg xmlns="http://www.w3.org/2000/svg" width={1000} height={1000} {...props}>
    <title>{"6753478-ai"}</title>
    <style>{".s2{fill:#520536}"}</style>
    <g id="OBJECTS">
      <g id="&lt;Group&gt;">
        <path
          id="&lt;Path&gt;"
          d="M445.3 252.8c45.8 10.4 83 42.5 122.6 67.8 39.5 25.4 89 45.2 132.7 27.9 47.3-18.7 70-78.1 57.3-127.5-12.7-49.3-53.6-87.5-99.8-109-70.6-32.9-156.3-31-225.8 4.2-50.7 25.6-100.8 72.8-121.5 126.7-4.2 10.9-10.1 25.8 3.3 33.7 13 7.6 24.4-5.5 35.7-11.2 29.2-14.7 63.5-19.8 95.5-12.6z"
          style={{
            fill: "#f0ccbd",
          }}
        />
        <path
          d="M519.7 831.9c-33 49.2-103.1 70.8-156.6 45.4-33.2-15.8-57.1-46-77.4-76.7-29.1-43.9-53.5-90.9-72.6-140-4.4-11.5-8.7-23.4-8-35.7 1.3-23.3 23-43.5 46.3-43.3 21.5.2 39.9 15.2 54.3 31.1 14.4 15.9 27.4 34 46.3 44.2 47.7 25.8 123-20.1 162.8 15.3 40.5 35.9 31.6 119.9 4.9 159.7z"
          style={{
            fill: "#d4b2c6",
          }}
        />
        <path
          d="M379.6 280c-43.7 14.1-65.9 62.1-82.5 101.2-4.8 11.3-8.9 23-10.6 35.3-1.8 13.5.4 25.4 4.3 38.3 2.4 7.9 3.3 15 1.5 23.2-1.5 6.7-3.9 13.1-5 19.9-2.2 13.2-1.4 26.6.7 39.8 4.5 29.4 12.6 58.4 19.3 87.3 4.7 20.4 6.5 50.5 25.4 63.7 9 6.2 20.5 7.5 31.1 7.7 14.6.2 29.2-.8 43.7-2.2 28.5-2.7 56.8-8 84.4-15.8 13.6-3.9 28.1-7.7 40.1-15.5 9.2-6 16.6-14.2 22.6-23.4 6.7-10.3 11.8-21.7 16.9-32.9 2.7-5.8 5.4-11.7 8.5-17.4q1.9-3.7 4.1-7.4 1.2-2 2.5-4c.8-1.3 2.3-5.3 3.1-6q2.4 1.8 4.7 3.6c3.6-4.6 19-1.7 24-1.4 6.5.3 13 .8 19.5.4 11.4-.6 22.3-3.8 31-11.6 20.1-18.1 20.1-47.1 19.3-72-.2-3.2-4.8-3.9-5.6-.8-2.9 10.2-8.6 21.1-19.4 24.4-5.1 1.7-11.2 1.5-15.8-1.5-3.7-2.3-6.1-6.2-9.9-8.3-5.3-2.9-11.6-2.7-17.4-3.6-6.8-1.1-11.9-4.7-9.8-12.4 1.4-5.1 6.4-9.4 10.2-12.7 1.8-1.5.7-4.4-1.3-5-7.9-2.4-15.3-6-21.6-11.3-2.7-2.2-5.2-4.6-7.5-7.3-1.9-2.3-4.5-6.7-2.7-10-.1 0 4-3.2 4.1-3.3 7.8-8.6 3.2-21.3 3-31.5-.1-8.3 3.8-15.9 11-20.3 7.3-4.5 15.1-2.3 23-3.5 12.2-1.9 16.8-12.1 19.8-22.8 2-7.1 4-15.8 11-19.9 7.6-4.4 12.9 4.9 19.9 6.7 13.1 3.5 28.5-10.5 39.6 1.2 6.5 6.8 2.7 13 3.9 20.8.9 6 5.8 8.7 10.5 11.7 7.1 4.6 14.7 9.7 18.9 17.4 5.2 9.3 3.2 19.3-5.6 25.3-7.5 5.2-18.1 8.7-20.2 18.8-1.4 6.7 2.2 12.7 4.2 18.8 2.6 7.9 2.4 16.5-.6 24.3-2.8 7.1-8.1 14.2-15.5 17-6.7 2.6-15.4 2.2-17.7-5.7-1.2-4.1-1.5-7.8-5.7-10-3.6-2-8.2-1.1-11.8.6-5 2.3-7.8 6.5-11.3 10.6-6.5 7.7-13 8-18.3-.5-2.5-3.9-4.5-8.2-7.6-11.7-4.5-5.1-13.6-5.7-12.4-14.3.8-5.3 4.4-9.4 3.7-15.2-.7-5.2-4.1-9.5-7.7-13.1-4.6-4.6-21.4-19.1-7.2-23.7 6.2-1.9 13.3.4 19.6-.7 14.8-2.7 19.3-17.6 25.4-29.2 2.3-4.2 5.1-8.7 9.5-11.1 7.1-3.9 12.2-1.1 16.7 4.8 4 5.4 8.8 6.8 14.1 10.6 10.5 7.7 1.5 20.5-2.8 29-3.1 6.1-5.7 13-3.8 19.8 1.5 5.3 5.2 9.4 8.5 13.7 3.1 4.1 7.4 9.5 3.1 14.6-2.9 3.5-9.4 3.9-13.5 4.2-3.6.3-3.6 5.9 0 5.6 10.8-.8 25.3-5.9 20.1-19.7-2.4-6.5-8.3-10.8-11.2-16.9-5.5-11.6 5.2-21.5 8.8-31.9 1.9-5.7 2.8-12.4-.4-17.8-1.4-2.5-3.5-4.3-5.8-5.8-5.5-3.7-9.1-5-13.3-10.8-8.4-11.7-23.3-8-31.3 2.4-5 6.5-7.2 14.5-11.4 21.4-7 11.4-15 11-26.9 11.2-14.5.3-21.4 12-12.6 24.4 5 7.1 17.1 12.9 15.7 23-.9 6.4-6.4 12.1-3.5 18.8 2.5 6 10 6.6 14.1 11.2 4.5 5 6.3 11.9 11.2 16.6 11.2 10.7 20.4-1.8 27.9-9.6 3.3-3.5 9.9-8.4 13.3-2.2 1.4 2.5 1 5.9 2.7 8.5 2.9 4.4 8.1 6.4 13.2 6.6 13.9.8 24.8-9.7 29.8-21.9 2.8-6.9 3.8-14.4 2.7-21.8-1.6-10.9-11.4-22 .2-30.5 11.3-8.3 24.6-12.8 22.8-29.7-.8-7-4.2-13.3-8.9-18.5-2.7-2.9-5.8-5.4-9-7.8-5.4-4-13.4-6.5-14.3-14.3-.4-3.6 1-7.1.3-10.8-.7-3.1-2.1-6.1-4-8.7-3.8-5.1-9.6-8.6-15.9-9.1-8.7-.8-16.5 4.3-25 4.2-8.5-.2-12.7-9.3-21.4-8.8-19.2 1.1-17.8 26-25.4 37.6-7.2 10.9-21.1 4.8-31.6 9.1-7.1 3-13 9-15.8 16.1-3.3 8.1-1.5 16.4-.8 24.8.5 6.8.2 11.4-5.3 16.3-2.1 1.9-3.8 2.9-4.6 5.8-2 8 8.4 16.9 13.7 21.2 7.1 6 15.3 10.2 24.3 12.8l-1.4-5c-7.3 6.4-17.3 17.6-10.7 27.9 6.5 10.1 19.8 5.3 29 10 5.6 2.9 8.5 8.5 14.8 10.5 5.4 1.7 11.3 1.3 16.6-.5 12.2-4.4 18.8-16.2 22.2-28.1q-2.8-.3-5.6-.7c.7 25.9.8 61.7-27.4 74-12.4 5.4-26.3 3.8-39.5 3.1-8.3-.5-20.5-3-26.3 4.5-2.2 2.8 2.3 5.7 4.6 3.6 3.6-3.2 1.2-9.1-3.6-9-7.2.1-12.1 13-14.9 18.1-9.9 18.6-16.6 39.1-29.2 56.2-16.6 22.3-44.2 28.7-69.9 35.1-28.3 7.1-57.2 11.6-86.4 13.3-13.3.8-27.7 2.2-40.9-.6-14.3-3-22.4-12.9-26.6-26.4-8.3-26.1-12.8-53.9-19-80.5-6.7-29.2-16.5-60.4-8.9-90.4 2.8-10.7 6.3-20.7 4-31.9-3-14-8.1-25.7-6.5-40.4 3-28.5 19-56.8 32.9-81.4 13.1-23 30-45.1 55.7-54.4 2.2-.8 1.3-4.4-1-3.7z"
          className="s2"
        />
        <path
          d="M372.9 279.8c-24.1 7.3-52 17.6-60.6 44-4.1 12.7 2.5 33.1-10.8 41-11 6.5-25.4 3.6-36.9 9.9-19.1 10.6-24.6 37.2-10.8 54.3 4.7 5.8 11.5 10 15.3 16.6 6.2 10.7-1 17.5-10 22-9.5 4.9-18.3 9.4-22.8 19.7-4.4 10.1-2.6 21.2 8.1 25.8 5.2 2.3 10.9 2.7 16.2 4.4 11.7 4 10.9 14.1 10.1 24.4-.3 2.5 3.8 3 4.4.6 2.1-9.2 2.6-20.4-5.8-26.6-7.7-5.7-19.9-3.7-26.6-10.5-6.4-6.4-1.2-18.1 4-23.5 4.5-4.7 10.6-7 16.1-10.1 7.2-4.1 13.7-9.5 13.5-18.5-.2-12.8-12-19.8-18.7-29.1-8.4-11.7-7.2-29.4 3.3-39.5 16.7-15.8 50.6-4.1 54.2-33.3.8-6.8 0-13.6 1-20.4 1.2-8.8 5.7-16.7 11.7-23.1 12.2-13 29.7-19.2 45.9-25.3 1.8-.6 1.1-3.3-.8-2.8zM383.3 280.5c30.3-5.3 62.8-2.1 91.7 8.1 8.1 2.8 19.7 7.7 17.1 18.3-1.4 5.8-7 9.4-9 15.1-2.8 7.5 1.1 14.5 9.2 15.5 6.3.9 13.1-1.1 19.4-1.5 8.1-.5 16.4-.2 23.9 3.1 6.5 2.9 15.6 9.3 13.8 17.2-1.4 6.2-9.9 9-14.4 13.4-5.5 5.5-9.3 14.3-5.3 21.8 5.4 10.1 16.4 5 25.1 7.2 17.9 4.5 10.7 26.8 8.9 39-1.5 9.7.7 21.1 11.3 24.2 2.8.9 4.3-3.1 1.9-4.6-13.6-9-2.9-26.5-3.4-39.2-.3-8.5-3.3-17.9-10.6-22.9-3.3-2.3-7-3.2-11-3.3-2.8-.1-5.5.3-8.3.2-6.8-.2-10.6-5.5-8.4-11.8 3.8-10.5 22.5-13 21.6-25.3-.6-9.3-9.4-17.2-17.3-21-11.6-5.5-24.6-4.7-37-3.2-4.6.6-16.9 3.8-13.1-8.8.8-2.6 3.6-4.8 5.2-7 2.9-4.1 4.7-8.1 3.9-13.2-1.6-9.8-10.8-14.8-19.3-17.9-31.2-11.4-64.3-12-96.5-5.7-1.5.3-.9 2.6.6 2.3z"
          className="s2"
        />
        <path
          d="M666.5 331c4.4-12.2 6.6-26.6-.2-38.5-5.3-9.2-14.8-15.1-25.5-14.7-2.2.1-3.6 2.4-2.5 4.4 6.8 11.6 28.1-2.2 34.3-8.1 13.6-12.8 18.5-31.4 17.1-49.6-2.6-36.6-22.7-75.6-55.9-93.2-29.1-15.3-68.4-16.3-95.5 4.1-13.1 9.9-21.7 25.7-19.1 42.4 2.6 16 15.8 26.3 31.1 29.5 11 2.4 33.1 3.9 38.2-9.5 5.7-15.1-14.4-25.7-26.2-26.9-15.4-1.6-30.5 7.1-36.8 21.3-7.2 16.3 2.9 28.8 19.3 31.7 32.1 5.6 65.1-17.3 71.1-49.3 6.4-34-15-64.1-47.1-74.1-39.5-12.3-88.4-2.1-122.2 20.7-16.7 11.3-32.1 27-38.6 46.4-6.7 19.7-1.7 40.7 12.2 55.9l2.4-5.8c-58.1 1.3-120.1 37-134 96.2-1 4.1 5.4 5.9 6.3 1.7 13.3-56.8 72.2-89.7 127.7-91.1 2.9-.1 4.3-3.6 2.3-5.8-23.4-25.6-11.9-59.1 10.9-80.5 21.6-20.3 50.7-31.4 79.9-35 26.1-3.1 56.7-1.3 77.2 17.1 19.9 18.1 24.5 50.6 9.3 73-7.7 11.2-19.6 19.3-32.6 22.9-11.7 3.2-35.7 5-39.7-10.1-4.9-18.1 18.9-31.6 34.1-28.7 6.1 1.2 17.7 5.9 18.6 13.4 1.2 10.8-12 11.5-19.6 11.4-13.4 0-28.5-4.7-34.9-17.4-7.3-14.4-.4-31.6 10.9-41.7 20.2-18 51.6-20.2 76.5-12.5 32.3 10 52.6 36.5 62.9 67.6 5.6 16.9 8.7 35.9 2.5 53.1-2.7 7.4-7.3 14.3-13.2 19.5-3.1 2.8-20.7 14.5-24.4 8.4q-1.2 2.2-2.5 4.4c25.4-1.5 27.2 28.8 21.5 46.3-.9 2.7 3.3 3.8 4.2 1.1zM298.8 394.1c6.5-2.6 13-3.2 19.9-3 3.2.1 6.5.1 9.7.5q2.2.4 4.3.8 6.2 13.2-4.4 11.4c-12.9-.4-24.3-4.3-37.3-1.4-3.7.9-2.1 6.2 1.5 5.6 8-1.4 15.5-1.3 23.5-.2 5.8.8 12.1 2.8 18 1.6 6.1-1.3 11.8-6.4 10.3-13.2-3.8-17.8-36-10.3-46.5-4.6-1.3.8-.4 3 1 2.5z"
          className="s2"
        />
        <path
          d="M336.6 407.1c32.4 12.8 16 65.7-4.4 81.8-8 6.3-8 13.5-5.5 23.2 2.4 8.7 7.2 16.3 16.2 18.9 3.4 1.1 6.4-3.7 3.6-6.2-1.3-1.1-2.5-2.1-3.9-3.1l-.8 6.2c7.9-2.3 30.4-15.6 33.3-1.3q2.2-2.3 4.5-4.5c-4.1-1.4-6.6-3.6-8.8-7.3q-1.5 2.6-3 5.1c10.8 1.2 12.2 19 25.2 17.4 14.2-1.7 16.1-19.7 12.6-30.5-.8-2.6-4.8-2.2-4.8.7-.1 6.9 2.4 15.4-3.1 21-6 6.1-11.7.7-15.5-4.2-3.8-4.7-7.3-9.5-13.5-11-3-.8-5.1 2.3-3.8 5 2.8 5.5 6.9 8.9 12.8 10.8 2.5.9 5.5-1.9 4.5-4.5-2.3-5.8-6.8-8.9-13-9.6-10.3-1.3-18.4 6.4-28.3 6.2-3.2 0-4.2 3.7-2.4 5.8q1.2 1.7 2.7 3.1l3.6-6.2c-7.5-1.9-11.7-8.1-13.6-15.4-2.3-8.8 1.8-13.1 8-18.7 8.6-7.8 12.6-19.2 15.8-30 6.2-20.6 8.1-48.7-17.4-56.3-2.3-.7-3.2 2.7-1 3.6zM324.7 597.4c4.6.7 7.9-.4 11.8-2.8 3.2-1.9 6-4.5 9.6-5.6 5.4-1.7 11 .3 16.2 1.8 14.3 3.9 30.3 7.2 45 3.2 2.4-.7 2.4-4.4 0-5-11.6-3-17.7-17.3-25.7-25-6.2-5.9-14.3-10.6-23.1-9.8-4.2.4-8.6 3.8-12.8 3.3-3.3-.3-4.8-1.7-8.4-1-7.1 1.3-11.4 7.7-13.8 14.1-6.3 17.1-3.1 34.9 13.8 44.2 17.3 9.5 37.8 3.3 53.3-6.9 2.8-1.9.4-6.1-2.6-4.5-14.5 7.7-32 14.5-47.8 6.3-15.7-8-18.5-27.8-9.1-42.2q2.9-5 8.9-5.9 2.5.6 4.9 1.6c2.4.4 2.5.7 5.1 0 2.4-.7 4.2-2.6 6.7-3.3 5.2-1.4 10.8 0 15.3 2.5 7.3 4 12.5 11 18 17.1 4.6 5 9.8 9.1 14.8 13.8l1.8-4.4c-7.3-.5-14.7-.1-22-.7-8.6-.8-16.6-3.2-25.1-4.7-5.1-.9-10.1-1.1-15 .9-6.1 2.6-11.3 10-18.7 8.9-2.6-.3-3.8 3.7-1.1 4.1zM420.3 454.9c15.3-6.9 31.2-11.4 48-12 8-.2 16 .3 23.8 1.7 6.1 1 13.2 4.8 19.2 2.8 1.3-.5 2.1-2 1.3-3.3-3.8-6-13-6.8-19.6-7.9-8.6-1.4-17.4-1.9-26.1-1.3-17.3 1.3-34.3 6.6-48.8 16.2-2.4 1.6-.3 5 2.2 3.8z"
          className="s2"
        />
        <path
          d="M449.7 444c5.4 20 31.3 19.6 38.4 1 1.5-3.9-4.7-5.5-6.2-1.7-5.5 13.2-22.9 11-28-1-1.1-2.4-4.8-.7-4.2 1.7zM353.3 447.7c-18-19.5-46.7-6.5-68.4-2.6-3.9.8-3 7.1 1 7 20.3-.5 45.8-17.1 63.6-.5 2.6 2.3 6.2-1.3 3.8-3.9z"
          className="s2"
        />
        <path
          d="M323.9 442.9c-1.6 4.2-3.3 9.1-1.1 13.4 2.1 4.1 6.5 5.9 10.9 6.3 4.5.4 9.6-.4 13.1-3.4 3-2.6 5.5-7.7 2.9-11.2-1.3-1.7-4.5-1.9-5 .6-.6 2.5-.3 4.5-2.6 6.1-2.2 1.5-5.3 1.7-7.8 1.5-7.1-.6-7.3-6.3-5.8-12.1.8-3-3.6-4.1-4.6-1.2zM401.8 385.4c3.1 7.2 1.7 17.7 10.8 20.8 10.3 3.5 24-5.3 33.9-7.7 27.1-6.6 55.8 0 77.4 17.6 1.6 1.2 4.7.1 3.8-2.2-14.5-38-51.6-51.3-90.1-47.1-13.4 1.5-32.9 4.3-35.6 20.6-1.5 9.1 1.9 20 3.9 28.9 2.6 12.3 6.1 24.3 10 36.2 1.2 3.6 7.1 2 5.8-1.6-6.2-16.9-10.4-34.5-12.6-52.4-1.2-9.8.3-17.1 10-21.1 7.6-3.2 16.4-4 24.6-4.6 30.1-2.2 71 8.8 79.7 42.3q1.8-1.1 3.7-2.2c-16.7-14-37.9-22.3-59.8-22.4-11.6 0-22.8 2.6-33.7 6.1-6.7 2.2-19.3 8.9-24 .4-2.3-4.1-2.7-9.2-4.8-13.4-1-2.1-3.9-.3-3 1.8zM408.3 699.2c16.1 26.8 29.6 56.9 37.1 87.4 3.8 15.5 5.5 31.8 2.3 47.6-3 14.7-10.2 26.4-19.9 37.6-1.7 2.1.6 5.8 3.1 4.1 25-17.2 28.6-53.3 23.9-80.6-6.1-35.3-22.7-69-42.7-98.4-1.6-2.3-5.3-.2-3.8 2.3zM594.1 574.7c2.4-9.3 9.8-15.3 19.5-15.1L611 557c.2 11.1-10 21-13.5 31.4-3.4 10.5-4.5 21.7-5.2 32.7-1.7 25.9-3.3 52.2-.5 78.1 1.3 11.9 3.4 24.1 7.3 35.5 2.3 6.3 5.9 13.6 12.6 16.1 18.9 6.9 23.1-23.2 24.9-34.6 3.7-24.7 3.5-49.9-.8-74.5-1.5-8.7-2.4-22.8-10.5-28.5-4.6-3.3-10.8-3.1-14.3 1.5-5.4 7.3-3.9 20.7-2.9 28.9 1.6 11.9 4.8 23.6 8.4 34.9 6.5 20.3 15.3 40 28.1 57 30.2 40.1 82.5 55.5 131.2 54.6 2.6 0 3.4-4.3.6-4.7-37.4-5.4-75.6-7.3-106.5-32.1-27.8-22.4-42.9-56.5-51.8-90.2-2.6-9.7-4.9-19.5-4.9-29.5-.1-4.6-.6-21.3 9.4-15 3.7 2.3 4.6 11.5 5.4 15.4 4.6 21 6 42.6 4.4 64-.8 10.7-2.2 21.6-4.9 32.1-.7 3.2-1.6 6.4-3.3 9.2-4.5 7.7-11.7 7.2-16.2-.1s-6.1-17.1-7.7-25.4c-2.1-11-3.1-22.2-3.5-33.4-.8-22.5.2-45.4 2.3-67.8 1.2-11.6 3.4-22.9 9.1-33.3 3.9-7.2 8.8-13.7 8-22.3-.1-1.4-1.1-2.7-2.6-2.6-11.4.5-20.7 8.1-22.8 19.4-.4 2.1 2.8 3.1 3.3.9z"
          className="s2"
        />
      </g>
    </g>
  </svg>
