<svg id="Graphic_Elements" data-name="Graphic Elements" xmlns="http://www.w3.org/2000/svg" viewBox="0 0 1200 800"><title>5</title><path id="path6517" d="M954.31,503.59a54.55,54.55,0,0,0-8.65-.7c-12-.09-42.74-4.3-48.3-6.61a56.19,56.19,0,0,0-7.19-2.1c-8.12-1.85-9.93-2.4-13-4a37.85,37.85,0,0,0-6.22-2.41C865.47,486.3,854.64,481,855,480c.4-1.19,2.88-1.73,3.51-.76.44.68,11,4.43,14.16,5.05a56,56,0,0,1,6.38,2.28,69.44,69.44,0,0,0,7.55,2.64c1.46.36,6.1,1.54,10.32,2.63a206.68,206.68,0,0,0,34.71,6.14c3.33.28,7.58.84,9.46,1.24s13.51.72,25.87.71c18.82,0,24.23-.29,33.3-1.63,12.27-1.8,18.8-3.18,24.83-5.24,2.29-.78,5.35-1.75,6.81-2.16,6.37-1.78,26.23-9.89,32.07-13.1,19.56-10.74,29-18.58,36.89-30.5,4.93-7.48,5.8-9.92,6.69-18.79.52-5.16.37-6.74-1-11.22A26.39,26.39,0,0,0,1096,403.11c-6.13-4-8.78-8.07-8.81-13.58,0-3.41-.35-4.28-2.32-6.16s-3.43-2.36-8.3-3.12c-5.43-.84-11.36-.59-11.36.49a11.46,11.46,0,0,0,2.28,2.54c4.09,3.82,2.73,7.62-3.42,9.56-3.92,1.24-4.38,1.24-8.23,0-2.25-.7-4.49-1.77-5-2.38-1.65-2-1.88-7.19-.42-9.89s6.16-6.41,10.26-8.08l2.61-1.06-4.53-2.9c-4.88-3.13-12.28-10.68-15.45-15.78-5.13-8.26-4.9-20,.56-27.93,4.29-6.24,13.33-9,18.05-5.44L1064,321l3.32-3.32c6.23-6.22,13.71-8.29,18.12-5,2.47,1.83,4,8.53,2.55,10.91a4.56,4.56,0,0,0,.29,5.56c1.1,1.46,1.13,1.45,2.29-.19.64-.92,1.57-1.68,2.07-1.68a4.65,4.65,0,0,0,2-.7c.92-.58.91-.92-.07-2.44-3.8-5.87-1.29-11.64,6-13.86,3.22-1,10.64,2.45,15.07,7,3.55,3.61,4.15,3.95,5.6,3.17,3.21-1.72,12,.81,15.13,4.33s3.88,6.43,3.45,11.95c-1.06,13.87-8.46,25.33-21,32.56l-2.57,1.48,5.39.45c3.21.27,6.22,1,7.44,1.79,2.75,1.81,4.46,6.06,3.88,9.68-.74,4.65-1.88,6.31-6,8.83-5.08,3.08-9.47,3.23-13.53.48-3.23-2.2-4.18-4.86-2.94-8.28a17.82,17.82,0,0,0,.87-2.89c0-.74-5.13-1.93-10.79-2.5-4.18-.42-5.1-.32-5.1.57,0,.6-1.23,2.27-2.72,3.7-2.6,2.5-2.7,2.8-2.41,6.93.35,5.09,1.15,6.14,8.1,10.74,12.62,8.36,16,13.4,16.55,24.51.51,10.86-2.46,18.84-9.92,26.54-6,6.2-19.07,17.29-22.36,19a33.06,33.06,0,0,0-5.16,3.37c-1.93,1.62-21.4,11.82-22.58,11.82-.44,0-11.88,4.94-14.13,6.1-3.35,1.73-14.69,6-15.94,6a59.18,59.18,0,0,0-8,1.85,104.31,104.31,0,0,1-15.28,2.68c-4.78.46-11.58,1.12-15.12,1.48-8.37.84-28.29.86-32.16,0ZM1064,390.12c2.09-.8,3.41-4.18,2.13-5.46a8.27,8.27,0,0,0-3.31-1.3c-1.48-.31-2.53-1-2.53-1.63,0-1.33,7.48-5.26,10-5.26,1,0,1.6-.34,1.34-.76s-2.75-.75-5.53-.73c-3.74,0-5.94.46-8.41,1.73-8.31,4.25-7.49,14.14,1.17,14.14a18,18,0,0,0,5.13-.73Zm59.42-2c3.81-3.21,2.83-8.07-2.37-11.77-3.13-2.23-7-2.95-12.9-2.41-5.5.5-7,1.76-2.12,1.76a11.16,11.16,0,0,1,6.43,2.32c3.76,2.54,4,3.06,2.31,4.76-1.44,1.44-1.5,5-.09,5a3.14,3.14,0,0,1,2,1.13c1.42,1.71,4.15,1.38,6.76-.82ZM1075,372c0-.36-2.17-1.93-4.84-3.49a37.65,37.65,0,0,1-17.41-22.29c-2.42-8.22-1.12-12.64,3.84-13.06,2.88-.25,3.28-.7,4.77-5.4.8-2.54.75-3.08-.48-4.43-2.22-2.45-7.88-1.59-11.34,1.73s-4.34,5.18-5.53,11c-1.87,9.11,1.74,17.42,11.55,26.56C1062.21,368.8,1075,375,1075,372Zm35.46-2.52c11.81-5.24,18.72-10.74,22-17.52,3.81-7.87,5-18,2.62-22.67s-8.08-7.88-12.15-6.54c-2.33.77-2.52,1.08-2.52,4,0,3.23.33,3.77,4.95,8,1.93,1.78,2,2.15,1.7,7.58-.45,7.77-3,13.2-8.93,19-2.51,2.46-4.89,4.47-5.28,4.47a13.39,13.39,0,0,0-3.49,1.89,10.83,10.83,0,0,1-4,1.9,5.43,5.43,0,0,0-2.73,1.18c-1.38,1.11-1.29,1.15,1.45.71a32.57,32.57,0,0,0,6.43-2Zm-33.94-.57a8.29,8.29,0,0,0-2.22-2.84c-2.76-2.65-6.33-9.32-7.5-14-2.09-8.44-.38-19.8,3.67-24.34,2-2.28,2.38-2.38,8.07-2.41,3.25,0,6.35-.29,6.87-.61,1.39-.87,1.15-5.38-.39-7.28-2.08-2.56-8.56-2.47-13.08.18-7.62,4.48-10.59,13-9.18,26.38,1,9.64,3.86,16.39,9.24,21.94,3.58,3.69,4.52,4.31,4.52,3Zm14.21-7c1.85-6,2-10.67.65-15.32-1.22-4.07-2.73-3.83-4.91.75-1.55,3.26-1.75,4.63-1.48,9.84.22,4.13.75,6.72,1.69,8.14.75,1.14,1.58,2.08,1.86,2.08s1.26-2.47,2.19-5.49Zm14.61.85c3.92-3.14,5.54-5.15,8.43-10.49,3.22-5.93,3.64-7.28,4.08-13.05.42-5.42.23-7.3-1.18-11.94-2.11-6.94-3.16-8.54-7.25-10.93s-10.39-2.68-12.6-.67c-2,1.83-1.77,5.67.55,8.17,1.72,1.86,2.28,2,5.23,1.59,3.1-.47,3.41-.34,5.12,2,2.83,3.86,3.81,8,3.48,14.68-.4,7.76-4.12,16-9.3,20.55a19.23,19.23,0,0,0-3.44,3.5c0,1.32,2.52.08,6.88-3.41Zm5.23,2c5.93-3.06,14.38-17,14.38-23.67,0-2.39-1.89-5.44-3.36-5.44-.72,0-1.1,1.52-1.3,5.19q-.58,10.32-10.48,20.83c-4.94,5.25-4.77,5.94.76,3.09Zm-35.13-2a7.52,7.52,0,0,1-1.19-3.66,15.37,15.37,0,0,0-1.52-5.1c-1.13-2.34-1.51-4.68-1.51-9.3,0-5.32.32-6.84,2.31-11,1.27-2.66,2.7-4.84,3.18-4.84s.64-.22,0-.83c-1.29-1.29-4.8.76-6.62,3.86-1.3,2.22-1.55,3.95-1.55,10.62,0,7.91.67,10.83,3.8,16.62.56,1,1.62,3.06,2.35,4.48s1.46,2.2,1.62,1.72a4,4,0,0,0-.9-2.56Zm23.89-1.57c4.77-7.67,5.29-9.33,5.26-17.08,0-9.88-1.19-13.73-4.7-15.45-3.72-1.84-7.17-.69-7.9,2.64-.44,2-.16,2.63,2.17,4.67,3.31,2.9,4.83,5.9,5.48,10.87.53,3.93-.81,10.25-3.12,14.8C1094.14,366.3,1096.34,365.94,1099.34,361.13Zm-20.1,0c-2.12-7.42-2.22-14.58-.26-18.35a36.91,36.91,0,0,1,4.13-5.12c2.89-3.12,3.31-4,3.11-6.43-.26-3.12-1.3-3.67-5.49-2.88-7,1.32-9.59,21-4.07,31.38,1.78,3.33,3.38,4.2,2.58,1.4Zm4-4.92c0-12.43,5.44-19.55,9.32-12.3,1.07,2,1.41,4.24,1.41,9.27,0,3.75.32,6.63.73,6.63,1.73,0,2.65-3.68,2.66-10.6,0-5.76-.27-7.6-1.4-9.27-.77-1.14-1.84-2.08-2.36-2.08a3.1,3.1,0,0,1-1.9-1.13c-1.44-1.74-3-1.38-6.53,1.55-4.68,3.84-6.18,9-4.86,16.92,1,6.31,1.46,7.64,2.31,7.64C1082.9,362.85,1083.18,359.87,1083.2,356.22Zm-19.54,3a50.2,50.2,0,0,0-1.57-5.43,57.44,57.44,0,0,1-2.08-10.91l-.51-6.11h-2.27c-2.14,0-2.29.19-2.51,3.25-.28,3.94,2.09,11.22,5.29,16.23C1062.11,359.51,1063.66,360.77,1063.66,359.19ZM1109,337.87c-1-6.43-2.61-9.83-4.5-9.83a1.35,1.35,0,0,0-1.48,1.13c0,.62.26,1.14.58,1.14,1.58,0,3.44,6.65,3.37,12.06q-.14,10.38,1.83,3.77C1109.56,343.56,1109.6,341.66,1109,337.87ZM796.53,501.92c-19-4.13-26.5-8.68-26.72-16.16-.18-6.6,5.45-8.86,21.2-8.5,12.07.28,12.66,0,12.69-6.73,0-4-.13-4.4-2.55-6a30.76,30.76,0,0,0-6.66-3c-3.67-1.16-4.43-1.18-7.28-.2-3.42,1.19-4.53,3.54-2.71,5.74.78.93.75,1.28-.13,1.84-1.66,1.05-3.8.82-7.33-.78-5.61-2.55-6.33-8.2-1.32-10.29,5.3-2.22,17.76-.43,26.74,3.83,7,3.3,8.93,5,10.82,9.37l1.44,3.31-1.94,2.55c-2.82,3.7-5.85,4.18-19.28,3.07-6.53-.54-7.42-.45-9.65,1s-2.46,1.89-2.46,5.19c0,3.13.35,4,2.46,6,5.92,5.57,15.35,8.22,27.06,7.6,9-.48,13.21-1.42,19.39-4.37,13-6.22,22.06-23.55,19.22-36.91-2.36-11.15-11.42-16.77-27-16.77-8.84,0-12.65,1.25-17.4,5.74-2.15,2-2.49,2.75-1.88,3.9.42.78,4.95,3.39,10.08,5.81,20,9.43,26.4,12.86,26.18,14a1.87,1.87,0,0,1-1.37,1.37c-1,.19-17.45-7.88-48-23.58-9-4.61-26.38-14.76-34.43-20.09-2.29-1.52-6-3.74-8.32-5a33,33,0,0,1-5.16-3.19c-1.51-1.49-2.87-1.21-6.35,1.31a23.11,23.11,0,0,1-6.48,3.13c-3.68.93-3.49,1.51,1,2.91,8.71,2.73,21.81,13.1,24.83,19.66,2.07,4.51,2.31,17.3.39,20.81-3.26,5.95-8.85,8.49-13.54,6.15a13.8,13.8,0,0,0-3-1.23c-.31,0-1.33,2.19-2.28,4.87-1.93,5.46-3.54,7.64-7.82,10.54s-10.33,2.85-13,0c-2.39-2.59-3-5.06-2-8.24,1.25-4.07-1.24-4.74-4.6-1.23-1.6,1.67-1.94,2.61-1.6,4.35a7.38,7.38,0,0,1-3,7.55c-1.53,1-2.85,1.14-6.6.71-4.19-.49-5-.86-7.33-3.48-1.45-1.62-2.93-2.94-3.3-2.94s-1.36,1.19-2.22,2.65c-1.31,2.22-2,2.65-4.21,2.65a30.88,30.88,0,0,1-6.77-1.2c-3.44-1-4.56-1.8-6.7-4.73-5.06-7-6-13.38-3.86-24.92q2.93-15.45,12.65-21.9c1.62-1.07,2.94-2.24,2.94-2.6s-2.33-.65-5.17-.65c-4.49,0-5.62-.3-8.64-2.3-3.59-2.38-5.11-5.12-5.11-9.21,0-1.56,1-3.21,3.25-5.64,2.69-2.85,3.83-3.5,6.65-3.82s3.76-.09,5.93,1.73c2.41,2,2.49,2.27,2,6.12s-.4,4,1.53,4.51a58.77,58.77,0,0,0,10,.05c7-.4,8.2-.67,9.35-2.09,1.73-2.12,1.68-3.82-.21-7.18-7.7-13.71-26.3-27.81-40.31-30.56-2.16-.42-6.15-1.25-8.85-1.83s-9.69-1.49-15.52-2c-9.37-.82-11.29-.79-16.65.34-13.51,2.84-13.58,2.82,5.68,1.45,5.1-.36,12.72.41,26.86,2.73,8.84,1.45,23.09,6.4,23.09,8,0,1.36-1.36,1.37-5.46,0a201.68,201.68,0,0,0-22.54-6.17c-8.69-1.7-26.18-2.27-32.87-1.08-4.64.82-5.34.79-6.13-.3a2.9,2.9,0,0,0-1.72-1.22,1.65,1.65,0,0,1-1.26-.73c-.7-1.12,2.75-3,7.64-4.18l9.36-2.22c7.28-1.73,22.13-2.87,29.89-2.3,6.33.46,12.15,1.82,23.46,5.49,2.5.81,5.74,1.72,7.19,2a21.72,21.72,0,0,1,4.54,1.55,45.26,45.26,0,0,0,4.54,1.93c3.31,1.18,4.65,2.18,4.11,3.05-.75,1.23-3.84.7-9.47-1.63-10.59-4.36-27.5-8.65-37-9.38-6.28-.48-5.31.51,1.76,1.8,10.66,1.95,13,2.64,19.42,5.56,17.29,7.94,28.2,17.11,33.38,28.07,1.59,3.36,2.89,4.93,5.26,6.34l3.15,1.88,3.22-1.6a18.91,18.91,0,0,1,3.89-1.61c1,0,7.1-3.33,7.1-3.89,0-.26-.84-1-1.88-1.71a9.67,9.67,0,0,1-2.94-3.75,8.23,8.23,0,0,0-4-4c-5.87-3-9.36-5.59-9.36-7.06,0-2.53,1.39-2.47,5.49.24,6.9,4.57,7.8,4.8,10.59,2.74a10.33,10.33,0,0,1,12.29.33c3.68,2.81,5.68,6.23,5.68,9.7,0,2.78.1,2.87,5.86,5.61a66.38,66.38,0,0,0,8.14,3.35c1.25.32,5.13,1.63,8.62,2.91,5.87,2.17,9.91,3.22,20.39,5.31,9.51,1.9,37.92.3,35.61-2-.69-.69-.4-1.1,1.3-1.77,11-4.35,16.19-8.09,16.19-11.59,0-1.88-2-2.33-4.14-.94-2.8,1.84-6.19,1.57-7.61-.6-1.07-1.63-1.07-2.1-.06-4.52,1.4-3.35,5.4-6,7.4-4.94,2.18,1.16,1.63,2.76-1.26,3.71-3.23,1.07-5.26,3.6-4.05,5.06s2.38,1.21,6.62-2.41c2.19-1.87,4.3-3.4,4.68-3.4a5.71,5.71,0,0,1,2.29,1.6c1.82,1.81,1.63,5.52-.43,8.67-1.21,1.85-8.21,6.66-12,8.28-1.2.5-1.85,1.12-1.43,1.38,1,.62,11.7-4.63,16.85-8.28,6.42-4.54,9.08-7.19,9.08-9.06,0-.93,1.51-4.15,3.36-7.14,3.69-6,4.89-11.33,3.69-16.42-.78-3.32-3-4.12-5.94-2.17-2.47,1.62-4.3,1.5-6.77-.44-1.87-1.48-2-2-1.73-5.31.4-4.13,2.23-6.68,4.8-6.68,3.25,0,3.33,5.74.09,6.2-1.18.16-1.74.84-1.91,2.31-.22,1.92,0,2.08,2.41,2.08s2.74-.3,3.48-2.55c1.91-5.78,7.23-6.79,10.48-2,2.69,4,2.12,10.59-1.58,18.3-1.53,3.2-3.13,6-3.56,6.29a2.2,2.2,0,0,0-.77,1.71c0,.78.7.27,1.87-1.37,1-1.43,2.21-3,2.64-3.52a3.12,3.12,0,0,0,.79-1.4,44.41,44.41,0,0,1,2.21-5.14,52.82,52.82,0,0,0,5.36-22.33c0-6.26-1.1-14.92-2.27-17.89-.33-.83-1.2-3.21-1.93-5.29-2-5.66-6.81-14.15-10.29-18.11-4.48-5.09-10.64-9.49-18.81-13.45-14.18-6.88-18.18-7.7-35.26-7.22-13.68.39-17.65,1.22-26.8,5.64-17.53,8.47-24.82,32.8-12.84,42.88,2.9,2.44,3.1,2.44,7.08.1,2.84-1.66,3.4-2.47,4.87-7a61.54,61.54,0,0,0,2.13-8.69l.48-3.57-3.78.45c-3.37.4-3.91.26-5-1.33-3.89-5.55,1-16.4,7.91-17.63,7.21-1.27,11.87,9.71,8.66,20.39-1.17,3.88-1,4.93.66,3.72l4.63-3.47c4.89-3.69,15-7,21.07-6.94,11.66.13,24.33,7.07,27.83,15.23,1.55,3.62,1.83,8.51.63,10.77-.93,1.72-4.57,3.74-6.76,3.74a1.4,1.4,0,0,0-.8,2.64c.41.26,1.28,2.29,1.93,4.53,1,3.54,1,4.39.11,6.61-1.34,3.21-5.35,6.65-7.75,6.65a17.34,17.34,0,0,1-4.91-1.24c-3.34-1.33-5-.91-8.28,2.15-1.93,1.8-2.06,5.14-.2,5.15,2.25,0,5.94,2.73,6.93,5.11,3,7.13-5.73,15.32-16.23,15.32-1.73,0-1.86.26-1.86,3.88s-.29,4.15-2.7,6.43-3.15,2.55-7,2.54c-4.9,0-8.13-1-13-3.94-10.08-6.08-15.06-15.33-15.53-28.78-.14-4.06-.44-7.37-.67-7.36a35,35,0,0,0-4.21,4.05c-3.47,3.66-4.9,4.64-10.62,7.23-3.23,1.46-9-.09-11.48-3.09-4-4.87-3.74-10.12.85-14.6,2.27-2.22,3.69-2.94,6.37-3.24,3.31-.38,3.5-.29,5.06,2.35.89,1.51,2.07,2.74,2.62,2.74,1.44,0,14.07-13.76,13.82-15.06-.12-.6-1.2-1.36-2.42-1.69-2.79-.74-7.65-5.41-9.74-9.35s-2-10.16,0-17.41c3.2-11.17,7.28-16.92,15.91-22.42,12.07-7.68,15-8.48,34.63-9.44,13.54-.66,21.26.62,29.87,4.94,12.27,6.15,18.44,10,23.39,14.6,8.34,7.75,13.87,16.79,16.45,26.91,2.09,8.23,2.38,20.44.7,29.68-1.1,6-5.85,18.21-7.67,19.72a3,3,0,0,0-1.08,1.94c0,.57-1.13,2.32-2.52,3.88s-3,3.63-3.7,4.59c-2,2.91-9.11,10.26-11.55,11.88-3.91,2.6-20,10.35-23,11.05-12,2.85-14.69,3.19-25.5,3.17q-18.28,0-30.39-4c-2.62-.87-5.5-1.48-6.4-1.34-1.41.21-1.22.47,1.3,1.82,5.83,3.11,13.59,7.35,15.82,8.64,1.24.73,5.33,3,9.08,4.93s7.43,4,8.18,4.45c1.16.7,1.74.38,3.66-2,7.27-9,20.67-11.8,34.7-7.28,16.5,5.33,24.62,22.93,17.54,38.06a48.63,48.63,0,0,1-4.44,7.61c-5,6.29-17,13.76-25.07,15.6-1.95.44-4.59,1.11-5.87,1.49-3,.89-17.08.74-21.51-.23ZM703,488.37a4.81,4.81,0,0,0,2.37-2.84c.43-1.68,0-2.4-2.73-4.77a40.77,40.77,0,0,0-6.55-4.5c-6.17-3.18-9.22-9.44-9.25-19,0-8,1.69-13.16,6.16-18.82,3.19-4,3.39-5.5.47-3.5-3.82,2.61-5.79,4.92-8.2,9.62-2.33,4.52-2.56,5.59-2.83,13.28-.25,6.91,0,9.27,1.28,13.62,2.28,7.59,5.41,12.58,9.63,15.38,3.76,2.49,6.55,2.93,9.65,1.51Zm-20.44-2.23c3.51-2.76,2-9.78-2.12-9.78s-6.62-5.42-6.6-15.07c0-6.77,1.7-11.85,6-18,3.27-4.75,5.91-7.17,9.85-9s1.61-2.23-3.23-.58c-5.72,2-13.28,9.26-16.13,15.62-4.33,9.66-5,23.12-1.53,30.51,1.76,3.75,2.73,4.7,6.62,6.52,3.68,1.72,4.84,1.7,7.19-.16Zm43.46.14c2.63-1.35,7.73-6.76,7.73-8.22a20.33,20.33,0,0,1,1.7-4c1.44-2.84,1.69-4.52,1.66-10.92-.05-9.48-2-15.27-8.2-24.12-1.59-2.27-1.44-3.09.31-1.74,4.3,3.3,9.8,14.72,9.82,20.37,0,2.14.61,2.4,3.6,1.6,2-.55,2.25-3.34.62-8.71-1.85-6.1-6-11.34-12.28-15.66-3-2.06-3.88-2.06-4.18,0-.24,1.63-.25,1.62-2.51-.27-2.86-2.4-8.69-5.24-9.6-4.68s.73,2.57,2,2.57c1.62,0,8.58,7.7,10.9,12.06,3,5.62,4.89,13.21,4.34,17.26-.7,5.17-3.79,10.33-8.47,14.14a26.6,26.6,0,0,1-4.87,3.46c-1,0-3,2.29-3,3.49,0,1.8,3.56,4.83,5.68,4.83a13.5,13.5,0,0,0,4.76-1.43Zm-17.28-9.48a4.32,4.32,0,0,0-2-6.3c-5.64-2.5-8.9-13.1-7.78-25.25.33-3.58,1.16-7.59,1.83-8.89,1.07-2.08,1.09-2.38.09-2.38-2.09,0-4.35,5-6.49,14.3-2.1,9.16,1.16,24,6.2,28.27,3.21,2.71,6.8,2.82,8.17.25Zm12.74-2.17c5.26-5.43,5.86-17.65,1.34-27.51-2.36-5.17-7.14-11.63-8.59-11.63-.57,0-.92.26-.77.57s1.16,2.44,2.26,4.73c2.5,5.21,4,14.46,2.9,18.16a20.89,20.89,0,0,0-.77,4.74,7.26,7.26,0,0,1-2.24,4.44c-3.19,3.34-3.53,5-1.48,7.16,2.34,2.49,4.49,2.29,7.35-.66Zm-40-2c0-.37-.54-3.5-1.19-7a31.31,31.31,0,0,1,1.58-18.39c2.52-6,0-5-3.25,1.37-1.78,3.43-2,4.7-2,12.16,0,10.33.47,12.48,3,12.48,1,0,1.88-.3,1.88-.67Zm12.86-1.5a21.58,21.58,0,0,0-1.06-3.68c-1.84-5.21-2.16-12.14-.87-18.74,1.43-7.34,1.43-7.24.15-6.75-.56.22-1.63,2.38-2.36,4.81-2.41,7.95-.28,25,3.12,25C693.91,471.82,694.36,471.52,694.36,471.16Zm53.87-1c.18-1.23.83-1.77,2.36-1.95a3.1,3.1,0,0,0,2.74-1.89c2.74-7.36.7-18-4.63-24.08-5.11-5.85-19.34-13.89-26.08-14.75-3.44-.43-3.57-.39-2.15.74a5.85,5.85,0,0,0,2.8,1.23,2.26,2.26,0,0,1,1.74.78,2,2,0,0,0,1.55.75c1.84,0,8.87,5,13,9.21,4.64,4.75,6.35,8.94,6.36,15.57,0,5.53-.31,6.25-2.75,6.25-2.17,0-3.39,2-3.39,5.48s1.15,4.36,5,4.36c2.74,0,3.23-.24,3.44-1.7Zm-34.76-3.32,2.84-3.41v-7.7c0-9.57-2-17.51-4.89-19.59-1.25-.89-1.22-.2.09,2.87,1.63,3.78,1.86,17.52.38,21.73-1.67,4.74-3.66,3.66-7.44-4-2.32-4.69-3.31-6.07-3.68-5.11-.55,1.43.64,7.55,2.38,12.29,1,2.77,4.74,6.25,6.74,6.32.41,0,2-1.52,3.59-3.39Zm16.26-8.41a42.43,42.43,0,0,0-1-7.19c-.78-2-2.15-1.63-1.53.38a50.71,50.71,0,0,1,.94,7.18c.24,3,.77,5.49,1.19,5.49S730,462.11,729.73,458.39Zm-19.47.94c.68-.83.84-3.47.56-9.65-.52-11.55-2.61-16.82-6.14-15.46-1,.39-1.23,1.7-1.23,7.59,0,6.87.47,9.13,3.34,15.82,1.33,3.09,2,3.44,3.47,1.7Zm16.63-11.92c0-1.85-2.63-5.74-3.36-5-.4.4,2.55,6.72,3.14,6.72.13,0,.23-.77.22-1.71Zm-4.79-8.5c-2-2-3.12-1.24-1.21.79,1,1.07,1.94,1.58,2.09,1.14a2.46,2.46,0,0,0-.88-1.93Zm-38.42-7.32c7.1-1.24,8.21-2.56,2.14-2.54a19.68,19.68,0,0,1-8-1.46c-3.37-1.51-3.63-2.37-2-6.57.64-1.63-1.52-3.69-3.85-3.69s-7.55,2.63-8.15,4.19c-.83,2.16-.46,6,.72,7.54,2.44,3.24,9.65,4.19,19.15,2.53Zm35.52-6c3.76,0,13.47-3.95,16.14-6.51,3.63-3.48,2.81-9.51-1.8-13.12-3.13-2.46-6.59-2.76-9.09-.79-3.38,2.66-2.62,8.34,1.12,8.34a2.15,2.15,0,0,1,1.87,1.27c.72,1.87-4.7,6.31-10.28,8.44-2.61,1-4.63,2.22-4.63,2.82,0,.82.43.89,1.94.31a16.67,16.67,0,0,1,4.73-.76Zm76-6.83c3.54-1,5.41-3.61,4.75-6.66-.59-2.66-2.32-3.26-7.6-2.67-7.53.86-16.36-5.35-20.86-14.69-2-4.12-2.49-6.23-2.8-11.67-.21-3.65-.68-6.64-1-6.64-.9,0-.81,14,.13,19,1.74,9.18,7.5,17.59,14.52,21.2,5.45,2.8,8.61,3.33,12.9,2.13Zm-3.65-12c.23-.37-.7-1.2-2.06-1.85a23.52,23.52,0,0,1-4.14-2.54c-.91-.75-2.84-2.22-4.28-3.26-3.06-2.21-7.69-8.9-8.4-12.13-.54-2.47-1.88-3.08-1.88-.86,0,3.13,2.26,8.56,4.9,11.78,4.84,5.92,14.38,11.25,15.86,8.86Zm20-2.25c3.9-1.45,6.39-4.42,6.39-7.63,0-5.89-7.77-7.54-10.51-2.23-1.79,3.46-4.27,4.63-9.71,4.6a16.82,16.82,0,0,1-8.09-1.68c-4.8-2.45-10.76-8.47-13.08-13.2-2-4.08-3.51-5.37-3.51-3a36.54,36.54,0,0,0,2.68,7c4,8.73,8.9,13.18,18.51,16.91,4,1.56,12,1.2,17.32-.78Zm-9.85-8.14c1.3-.26,2.36-.81,2.36-1.22s-1.08-.55-2.69-.24c-6.23,1.17-15.75-4-20.79-11.34-2.51-3.65-3.5-4-2.72-.84.69,2.75,5.47,8.14,9.45,10.64C792.3,396.55,796.61,397.45,801.73,396.43Zm4.66-5.77c2.44-1.66,4.13-5.22,3.4-7.19-.5-1.36-2.8-1.18-8.17.63-3.22,1.09-5.61,1.44-7.61,1.12-4.33-.69-11.42-5.83-13.91-10.08-2.76-4.72-3.22-2.51-.61,3C784.81,389.36,798.72,395.84,806.39,390.66Zm-54-2.72c3.89-2,10.57-9.36,14.06-15.49a32.85,32.85,0,0,0,2.83-5.79c0-2-2.32-.34-7.14,5-6,6.57-10.49,10.12-12.92,10.12-1.45,0-1.67-.38-1.59-2.83s-.17-2.88-1.69-3.09c-3.2-.46-5.08.53-6.77,3.54-2.24,4-2.1,5.85.64,8.6,2.12,2.12,2.62,2.27,6,1.87a23.46,23.46,0,0,0,6.58-1.91Zm49.74-6.55c2.87-1,5.33-1.9,5.48-1.9a5.82,5.82,0,0,0,.25-2.46c-.05-6.43-13.39-17.18-21.36-17.21-.73,0-1.32.32-1.32.7,0,.73.45.91,5.81,2.3,3.57.92,12,8.27,11.43,10a5.25,5.25,0,0,1-2.41,2c-4,2-15.34-1.24-19.65-5.56-1.77-1.77-2.16,0-.47,2.12a7.67,7.67,0,0,1,1.5,2.59c0,1.17,4.79,5.32,8,6.88,5.89,2.93,6.14,2.94,12.79.53Zm13.32-1.9c1.84-1.84,2-7.35.4-10.54-1.81-3.51-7.42-7.89-11.84-9.26-6.94-2.15-11.53-2.87-12.62-2-.76.63-.18,1.1,2.46,2,6.42,2.24,15,11.33,16,16.87.23,1.37.56,2.92.72,3.44C811,381.51,813.75,381.19,815.45,379.49Zm13.84-2.28c2.65-2.08,3.16-5.17,1.69-10.24-2.08-7.17-5.61-11.2-13-14.86-5.78-2.87-7.09-3.21-13.2-3.51-7-.33-12.57.65-15.44,2.72-1.38,1-1.23,1,1.51.44a52.46,52.46,0,0,1,8.71-.59,28.62,28.62,0,0,1,17.24,6.12c5,3.84,6.81,9.53,4.32,13.88-1.33,2.33-1.44,5.45-.23,6.66,1.44,1.44,6.23,1.09,8.4-.62Zm-29.74-5.32c0-1.25-3.63-4.3-7.16-6-2.94-1.43-12.85-3.21-13.6-2.46-1.3,1.3,5.74,7.09,10.18,8.36C792.55,372.82,799.55,372.88,799.55,371.89ZM820,366.08c0-3.94-4.75-8.3-11.75-10.79-6.23-2.21-15.43-2.42-20.42-.47-3,1.16-2.94,1.17,4.17.73,6.63-.41,7.58-.29,12.31,1.62,5,2,12.66,7.9,12.66,9.76,0,1.23,1.6,2.76,2.39,2.27C819.7,369,820,367.58,820,366.08Zm16.92-10.28c1.33-2.73,1.34-3.06.16-6.16-1.74-4.55-5.89-8.54-11.74-11.28-4.22-2-6.06-2.38-12.27-2.63-8.2-.33-12.47.68-19.48,4.62-4.58,2.58-9.16,6.36-9.16,7.56,0,.44.59.3,1.32-.31,2.54-2.1,9-5.14,13.46-6.3,9.47-2.46,20.78-.56,25.91,4.36,2.23,2.14,2.46,2.77,2.34,6.38-.17,5.13,1.44,7.2,5.36,6.87,2.27-.19,2.91-.68,4.1-3.11Zm-50.45-3.75c1.39-2.17,7.21-5.09,11.9-5.95,6.45-1.19,12.26-.16,19.62,3.47,6.43,3.18,7.3,3.28,7.3.83,0-2.67-4.09-5.48-10.16-7-4.74-1.17-5.61-1.17-12,0-9,1.6-18.66,6.22-18.66,8.92C784.42,353.33,785.76,353.16,786.46,352.05ZM781.72,344c2.67-7.5,2.84-15.56.38-18.88-3.36-4.55-8.26-3.56-11.14,2.25-1.48,3-1.6,3.79-.83,5.49,1.17,2.57,3.91,2.63,6.08.13s2.7-1.94,3.33,2.25c.45,3,.11,5.92-1.64,14.37-.87,4.2,1.65.5,3.82-5.61Zm311.74,157.75c-7.74-1.54-12.39-5.26-12.39-9.92,0-2.93,1.59-4.35,6.27-5.62,2.79-.75,4.07-.77,5.54-.1,2.38,1.08,3.32.56,3.32-1.85,0-1.27-.77-2.35-2.46-3.42-2.14-1.35-3.29-1.5-8.89-1.17-6.25.38-9.29,1.07-14,3.15-1.25.56-3.85,1.69-5.78,2.51a57,57,0,0,0-6.43,3.35,71.83,71.83,0,0,1-10.5,4.52c-4.16,1.46-9.66,3.52-12.24,4.57-3.85,1.58-4.75,1.72-5.09.82-.26-.66.24-1.33,1.27-1.74,6.06-2.35,10.51-4.19,14-5.78a27.78,27.78,0,0,1,4.93-1.89,30.94,30.94,0,0,0,5.58-2.45c15-7.79,19-9.46,24.63-10.37,7.14-1.16,12.78-.52,17,1.92,5.39,3.14,6.91,7,4,10.09-1.44,1.55-2,1.66-6.65,1.2-5.8-.57-7.34.32-6.47,3.77.55,2.19,1.36,2.75,6.38,4.42,4.14,1.39,12.32.52,14.59-1.53,5.3-4.8,4.22-14.62-1.73-15.81-1.72-.35-2.27-.87-2.27-2.16,0-2,1-2.92,4.6-4.08,2.3-.74,3.22-.64,6.16.66,4.11,1.82,8.16,6.14,8.16,8.72,0,3.52-3.66,10.12-6.66,12a21.61,21.61,0,0,0-3.83,3c-1.58,1.91-8.89,4.3-12.81,4.21a59.2,59.2,0,0,1-8.2-1ZM372,498.35c-2.71-.78-6.95-2-9.42-2.65a33,33,0,0,1-6.9-2.72,10.15,10.15,0,0,0-3.35-1.49c-1.93,0-10.13-10.35-11-13.9-.55-2.21-1.25-2.47-2.74-1-2.55,2.52-11.89,6.63-19.23,8.45-2.88.71-8.12,2.14-11.66,3.17a155.51,155.51,0,0,1-15.89,3.29c-5.2.78-10.48,1.76-11.73,2.17-7.19,2.4-45,4.5-57.89,3.22-20.61-2.05-24.34-2.51-31.41-3.86-11.67-2.23-31.57-7.95-41.81-12-5.72-2.28-22.24-10.55-23.68-11.85a4.37,4.37,0,0,0-1.77-1.11,57.71,57.71,0,0,1-6.75-4.09c-7.93-5.23-17.07-13.7-20.28-18.8C95.06,443,93,440,91.87,438.52c-5.24-6.71-6.25-19.51-2.48-31.13,2.12-6.49,7.47-12.48,15.46-17.3,4-2.4,6.06-5.73,6.06-9.74,0-2.62-.49-3.63-3-6.26-2.78-2.87-3.22-3.07-5-2.28a12.41,12.41,0,0,1-4.33.87,75.21,75.21,0,0,0-9,1.22c-7.06,1.29-8,2.21-4.73,4.39,2.3,1.51,2.38,2.93.32,5.83-2.54,3.55-6.39,4.9-13,4.53-3.16-.18-4.65-8-2.49-13.16,1.61-3.87,6.56-6.81,14.2-8.44,2.65-.57,2.65-1.56,0-2.6-7.34-2.86-15.47-9.89-18.82-16.29A51.48,51.48,0,0,1,60.24,333c-.54-3.36-.39-4.14,1.38-7,5.75-9.36,10-13,15.46-13,2.39,0,6.58,1.91,6.58,3,0,1.39,2.17.73,2.66-.81.79-2.48,8.08-9,11-9.81,5.07-1.42,7.21-1,9.85,2,2.15,2.44,2.39,3.16,2.06,6.09-.23,2-.92,3.72-1.79,4.36s-1.15,1.29-.83,1.61a26.16,26.16,0,0,0,6.71,2.56c1.38,0,1.09-2.4-.54-4.6-2.11-2.86-2.31-5.15-.71-8.22,1.87-3.64,4.75-5.42,7.89-4.9q11.68,2,15.28,10.09l1.48,3.34,2.06-1.92c3.27-3.05,4.95-3.66,7.81-2.84,9.77,2.8,13.06,7.72,13.1,19.59,0,7-.06,7.45-3.26,14-4,8.28-9.13,13.67-16.21,17.13-5.2,2.53-5.83,3.74-2,3.74,5.44,0,10.51,5.51,10.51,11.43,0,2.85-.4,3.79-2.47,5.8-3.55,3.45-6.52,4.31-11.07,3.22-3.73-.9-6.89-3.09-6.89-4.78a11.1,11.1,0,0,1,1.52-3.39c2.7-4.43,2.1-5.12-6.42-7.37l-3.77-1L117,374.41c-2.34,2.73-2.69,3.67-2.81,7.55s-.48,4.87-2.81,7.71a21.68,21.68,0,0,1-5.84,4.83c-5.33,2.64-10.89,8.52-12.78,13.5-3.34,8.85-.41,23.55,6.85,34.33,3.5,5.19,15.25,16.47,21,20.15,11.78,7.53,32.77,17.49,42.14,20,27.33,7.29,43.64,9.62,71.9,10.26,19.3.44,30.72-.32,47.07-3.14a258.4,258.4,0,0,0,45.63-11.93c12.21-4.54,11.3-3.61,11.21-11.52-.1-8.49,1.34-13.1,6.11-19.49,2.78-3.73,4.79-5.45,9.56-8.15,7.14-4.06,12.44-5.53,19.66-5.47a25.58,25.58,0,0,1,21.72,11.55l1.23,1.89,2.52-1.43c3.08-1.74,9.8-5.41,16.91-9.21,2.91-1.56,6.56-3.64,8.12-4.61a18.3,18.3,0,0,1,3.23-1.78c.9,0,6.43-3.85,6.43-4.48,0-.37-1.62-.16-3.59.47-18.42,5.84-33.68,7.26-50.14,4.67-8.18-1.29-21.44-5.51-25.73-8.19-1-.65-3.19-1.84-4.78-2.65s-6.37-4.94-10.62-9.2c-6.77-6.77-8.24-8.72-11.69-15.56-6.88-13.64-9.23-29.95-6.14-42.63,3.17-13,6.42-20.49,11.62-26.91l5-6.15c2.85-3.52,15.64-13.48,17.32-13.48a6.41,6.41,0,0,0,2.87-1.13A78.16,78.16,0,0,1,368.33,300c8-2.88,9.24-3.1,19.2-3.51,11.11-.46,12.28-.27,26.08,4.09,5.61,1.77,13,6.62,17.29,11.32,2.21,2.43,4.83,5.28,5.82,6.32a29.06,29.06,0,0,1,3.83,6.37c1.68,3.67,2,5.57,2,10.59,0,8.72-1.68,13.72-6.11,18.17a32.75,32.75,0,0,1-5.55,4.63,7.82,7.82,0,0,0-3,3.44c-.86,2.07-.83,2.69.22,4.39.67,1.08,1.78,3.06,2.47,4.38,1.52,2.95,8.93,10.08,10.47,10.08.62,0,1.74-1.27,2.51-2.83a10.38,10.38,0,0,1,3.43-3.95c1.88-1,2.22-1,4.16.43,4.65,3.44,5.9,10.25,2.67,14.61-1.9,2.57-6.63,4.23-10.18,3.56-3-.56-9.35-5.75-11.14-9.08-1.88-3.53-3.07-2.47-3.08,2.75a37.7,37.7,0,0,1-1,8.13c-1.13,4.09-4.5,10.69-6.16,12.06a3.21,3.21,0,0,0-1.2,1.85c0,.77-7.79,7.28-8.71,7.28a28.37,28.37,0,0,0-3.59,1.44c-3.42,1.54-4,1.63-10.27,1.59-4.37,0-7.21-1.15-9.59-3.79-1.17-1.29-1.48-2.6-1.36-5.75.12-3.57,0-4.08-1.31-4.08a21.84,21.84,0,0,1-5.51-1.8c-6.12-2.71-8.93-7.58-7-12.17,1-2.46,4.09-4.95,6.08-4.95,1,0,3.45-3.57,3.45-5.11,0-.68-4.35-2.46-6-2.46a7,7,0,0,0-2.89,1.51c-2.15,1.7-6.62,2-9.58.66-4-1.83-5.07-10.36-2.38-19.2.37-1.22-.1-1.74-2.45-2.72-4.84-2-6.91-8.57-4.29-13.63,1.71-3.31,6.08-7.93,10-10.59,7.49-5.06,20.76-4.25,33.48,2a60.64,60.64,0,0,0,7.51,3.35c.42,0,.72-2.59.7-6-.05-6.56.41-7.83,4.39-12.23,2.48-2.75,3-3,6.78-3s4.33.23,6.66,2.77c5.77,6.3,3.29,14-4.12,12.83-2.76-.44-3.09-.3-4.15,1.76-1.48,2.85-1.47,7.81,0,12.08,1.84,5.28,2.36,5.89,5.41,6.33a23.55,23.55,0,0,1,4.13.91c1.64.66,7-4.14,9-8,2.88-5.65,1.6-17.21-2.72-24.59-2.16-3.68-9.16-10.87-10.59-10.87a2.83,2.83,0,0,1-1.78-1c-1.24-1.51-6.69-4-11.83-5.44-2.5-.69-5.32-1.57-6.28-1.95-4.33-1.71-25.33-.41-30.8,1.91-1.25.53-4.32,1.76-6.81,2.73a54.63,54.63,0,0,0-7.37,3.52,14.25,14.25,0,0,1-3.49,1.75c-.92,0-16,15.27-16,16.2a7.26,7.26,0,0,1-1.82,2.68c-2.34,2.47-6.1,9.93-8.53,16.9-2.62,7.53-3.3,22.86-1.38,31,1.32,5.6,6.88,18,8.06,18,.78,0,.85-1.06.11-1.8-1.29-1.29-3.33-8-3.69-12.2-.33-3.83-.12-5,1.37-7.57A11.67,11.67,0,0,1,336,372c1.91-.91,2.37-.86,4.14.44a13.88,13.88,0,0,1,3.46,4.66c1.24,2.68,1.78,3.16,3.41,3,1.46-.17,2-.72,2.17-2.25.3-2.57-3-7.89-5.31-8.61-3.45-1.07-5.9-3.38-5.9-5.57,0-4.42,6.18-6.47,6.67-2.21.17,1.49-.18,2.14-1.33,2.51-2,.65-2,1.68.15,2.28,4.82,1.36,6,2.25,7.8,5.76,2.18,4.3,2.2,4.61.68,7.83-1.78,3.75-6.67,5.47-8.67,3.06a5.38,5.38,0,0,0-3.54-1.14c-2.27,0-2.74.35-3.75,2.78-1.46,3.5-.91,6.72,2.23,13,1.92,3.79,2.2,4.88,1.38,5.39-1.43.88-.36,2.63,4.6,7.48s6.85,6.19,15,10.26c13.8,6.92,28.39,9,47.46,6.89,13.59-1.53,34.87-7.59,44.05-12.54l3.35-1.81.06-4.41c0-4.1.26-4.59,2.88-7,3.31-3,6.4-3.36,12.15-1.3l3.63,1.3,6.15-3.15c3.38-1.74,6.43-3,6.78-2.77,1.58,1,.14,2.47-5.8,6-5.32,3.14-6.54,4.23-7.25,6.43a12.32,12.32,0,0,1-3.22,4.67l-2.37,2,2.74,2.59c3.1,2.93,10.42,6.64,12.95,6.58,1.95-.05,3.87-2.31,7.34-8.66a74.89,74.89,0,0,1,7.58-11.35c3.58-4.73,10.45-10.33,17.85-14.56,10.18-5.83,8.57-6.21-5.41-1.3-11.66,4.1-12.05,4.18-12.05,2.31,0-1.08,1.15-1.86,4.54-3.08,2.49-.91,5.27-2,6.17-2.53,2.44-1.31,12.67-4.32,19.56-5.75,3.33-.69,7.92-1.67,10.21-2.17,5.62-1.24,30.8-1.17,36.71.1,2.49.53,6.5,1.63,8.89,2.44a28.24,28.24,0,0,0,6.57,1.46c1.44,0,2.37.46,2.66,1.32s1.88,2.05,3.64,2.93c7.14,3.56,11.66,6.38,13.76,8.56,3.09,3.24,1.94,3.68-2.19.84-9.86-6.79-20.74-9.82-35.35-9.85-12.3,0-17.55,1-37.6,7.51-18.82,6.08-20.17,6.37-20.17,4.2,0-1.28,1.85-2.12,12.11-5.53,6.66-2.21,14.32-4.53,17-5.15,16.16-3.69,18.92-4.1,28-4.2,9.44-.09,9.45-.1,6.05-1.22-2.42-.8-6.92-1.13-15.51-1.16-10.87,0-13,.18-20.44,2.09-16.12,4.12-29.65,11.42-39.21,21.15-4.58,4.66-8.78,10.81-10.5,15.37-.74,1.95-.62,2.66.79,4.95s2.1,2.72,5.8,3.18c7,.88,16.9-.8,17.1-2.89,0-.47.18-2,.29-3.32.26-3.06,2.11-6,4.22-6.64,3.17-1,8.12.33,9.76,2.64,2.3,3.23,2.07,8.17-.54,11.59-2.29,3-8.41,6.13-13.62,7-1.77.29-3.22.68-3.22.88a9.37,9.37,0,0,0,2.08,2.11c3,2.55,7.6,9.47,9.34,14.15,2.05,5.5,3,14.42,2.1,19.37-1.63,8.87-5.58,14.44-12.21,17.21-4.21,1.75-6.82,1.46-9.72-1.1A12.14,12.14,0,0,0,502,484.7a16.4,16.4,0,0,0-3.68,2.24,14.23,14.23,0,0,1-11.63,2.7c-3-.45-3.63-.89-5.37-3.87a16.28,16.28,0,0,0-2.29-3.36c-.18,0-.65.86-1.05,1.91-1,2.59-4,3.58-9.78,3.22-4.87-.3-4.87-.3-8.9-4.79A33.22,33.22,0,0,1,454,475l-1.23-3.22-2.45,1.51c-4.41,2.73-10.65,1.65-12.56-2.16a21.64,21.64,0,0,0-2-3.25c-1.42-1.72-1.75-10.91-.56-15.45a59.71,59.71,0,0,1,2.84-7.89c3.45-7.7,14.15-15.91,23.76-18.24,5.13-1.24,5.44-1.84,1.89-3.66a16,16,0,0,1-4.77-3.84c-.92-1.25-2.28-2.26-3-2.26s-3.82,1.65-6.85,3.67-8.07,5.15-11.2,6.94-7.08,4.14-8.81,5.22c-3.54,2.2-6.49,3.89-12,6.89-2.08,1.14-5,2.78-6.43,3.65s-4.86,2.67-7.57,4-7.47,3.86-10.59,5.61c-10.21,5.7-20.06,10.76-25,12.84-2.68,1.12-6.3,2.68-8,3.47a16.46,16.46,0,0,1-4.37,1.44c-2.34,0-2.05,2.22.72,5.61,3.42,4.17,6.61,5.4,10.94,4.24,1.69-.46,3.08-1.09,3.08-1.42a5.84,5.84,0,0,1,1.06-2c1.05-1.43,1.1-1.43,2.65,0,3.56,3.22.78,8.74-4.42,8.78h-2.7l3.41,1.58c4.38,2,11.79,2.65,17.27,1.45,5.88-1.28,7.7-2.08,7.7-3.38,0-2.85,5.29-4,8.13-1.75s-1,6.52-7.25,8.55c-4.48,1.45-14.85,1.2-19.8-.47a74.76,74.76,0,0,1-17.13-9.12c-6.9-5.32-9-9.14-10.16-18.13-.69-5.46-.6-6.26,1.2-11.05a25.48,25.48,0,0,1,4.75-8.06c2.77-2.86,9.8-6.73,11-6,.7.42-.84,2.5-1.85,2.5-1.66,0-6.87,4.26-8.85,7.24a28,28,0,0,0-3.77,15.08c.24,3,.27,3,3.18,2.85a9.22,9.22,0,0,0,3.79-.87,42.64,42.64,0,0,1,6.14-2.78,44.56,44.56,0,0,0,6.34-2.91c.57-.46,5.85-3.22,11.73-6.14,12.91-6.41,13.2-7,6.25-12.57-5.35-4.31-9.64-5.53-17.77-5-9.64.59-19.38,5.73-23.18,12.23-2.76,4.69-4.24,14-3,18.63,2.14,8,9.36,18.62,14.46,21.19a44.62,44.62,0,0,1,4.09,2.39,53.68,53.68,0,0,0,7.19,3.38c4.87,1.93,6.05,2.08,16.59,2.13,10.29,0,11.71-.12,15.11-1.69,4.69-2.16,6.3-3.6,7.66-6.86,1.56-3.74,1.32-6-.85-8-2.41-2.23-6.8-2.71-15.54-1.71-7.29.84-9.63.2-12.27-3.37-2-2.73-1.24-5.5,2.58-9.13,8.38-8,24.7-13,31.25-9.66a13,13,0,0,1,3.75,3.23c1.53,2.07,1.54,2.14.14,4.73-2,3.66-8.25,5.4-11.34,3.14-1.29-.94-1.3-1.13-.1-3.46,1.75-3.37.61-4.62-4.24-4.62-9.86,0-17.17,9.85-11.51,15.5,1,1,2.32,1.15,8.22.72,10.9-.8,17.83,2.27,19,8.42,1.08,5.78-2.22,9.06-13.39,13.31-5.91,2.24-7.1,2.43-17.32,2.64-8.95.18-11.88,0-15.89-1.19Zm124.09-13.87c4-2,10.42-10.12,12.47-15.8,1.83-5.09,1.33-16.66-1-22.59-1.73-4.45-7.85-12.11-9.68-12.11-1.27,0-1,.61,3.08,6.25,7.34,10.25,6.23,24.84-2.55,33.41-2.84,2.78-3.38,3-8.78,3.43-6,.49-7.14,1.19-7.17,4.34,0,4.45,7.46,6.15,13.6,3.07Zm-21.7-.5c2-.76,2.89-3.41,2-5.88-.43-1.16-1.52-1.65-4.6-2.05a19.33,19.33,0,0,1-6.87-2.39c-2.86-1.87-3.32-2.62-2.27-3.67.31-.31.62-3.86.68-7.88.09-5.28.54-8.37,1.61-11.1.83-2.08,1.77-4.47,2.1-5.3.59-1.51.59-1.51-1.13,0-5.08,4.46-6.72,13.24-4.22,22.52.44,1.64.33,2-.52,1.68-2.81-1.08-3.76-10.71-1.74-17.52.9-3,2.41-5.14,7.38-10.26,3.43-3.54,7.67-7.16,9.41-8a14,14,0,0,0,3.64-2.37c.9-1.46-3.44-.77-7.23,1.15-7.93,4-12.89,9.44-16.36,17.86-1.7,4.13-2,5.92-2,12.46,0,6.87.23,8,2.08,11.35,2.58,4.65,4,6.21,6.82,7.69,4.61,2.38,8.11,2.93,11.21,1.75Zm39.07.22c4.89-1,10-8.86,11-16.94,1.53-12.31-7.58-29.67-17.7-33.72q-7.38-3,3.52-2.16c10.28.75,17.49-2.27,19.21-8,1.38-4.61.1-6.77-4-6.77-4.26,0-5.94,1.61-5.94,5.7,0,3-.22,3.32-2.83,4.61-2.31,1.15-4.59,1.42-12.11,1.42-5.1,0-9.27.17-9.27.37a18.54,18.54,0,0,0,4,2.6c8.48,4.75,16,14.68,17.88,23.74a27.65,27.65,0,0,1-.27,14.23c-1.5,5.73-2.83,7.11-6.92,7.11-3.55,0-4.82,1.27-4.82,4.83,0,3,2.87,4.09,8.27,3ZM481,477.49a1.55,1.55,0,0,0-2.27-1.51c-.51.31-.49,1,0,2,.84,1.58,2.23,1.3,2.23-.45Zm9.14-5.25c3.85-2.54,6.39-7.14,7.82-14.18,1.08-5.25,1.08-6.36,0-11.73-1.37-6.9-2.49-10.08-3.54-10.08-.43,0-.55.89-.28,2.08,1.37,6,1.4,13.69.07,17.92-1.49,4.73-6.07,9.51-9.1,9.51a7.57,7.57,0,0,0-3.71,1.62c-1.64,1.29-1.95,2-1.55,3.59a9.23,9.23,0,0,0,1.34,3c1.19,1.43,5.39.62,8.93-1.73Zm-13.82-1.88a5,5,0,0,0-1.23-4.11c-4-4.36-5-11.23-2.74-17.82a25.23,25.23,0,0,1,5.39-9.72c1.43-1.77,2.28-3.22,1.87-3.22-1.71,0-7.88,6.6-10.85,11.61l-3.22,5.42,0,8.36c0,9.47,1,12.15,4.69,12.61,4.07.49,5.86-.42,6.12-3.13Zm18.79,3.27c2.35-.63,6-6.09,7.49-11.26a28.06,28.06,0,0,0-.85-17c-1.55-3.86-3.29-3.18-1.93.74,1.22,3.5,1.05,11.11-.35,15.83a22.36,22.36,0,0,1-5.51,10C492,474.13,492.19,474.41,495.07,473.63ZM514,470.87c2.1-4,1.72-15.55-.71-21.52-1.8-4.43-4.65-8.49-5.41-7.72-.2.2.55,2.21,1.65,4.49,1.81,3.72,2,5,2,12.83,0,5.83-.3,9.29-1,10.47a4.23,4.23,0,0,0-.58,2.84C510.72,474.11,512.65,473.44,514,470.87Zm-64.06-.56a6.07,6.07,0,0,0,1.52-4.19c0-2.38-.26-2.71-2.36-3.13-5.27-1.06-5.6-10.18-.68-18.78,3.87-6.76,13.62-13.63,21.39-15.07,1.56-.29,2.83-.85,2.83-1.25,0-1.82-10.65.18-17.33,3.26-5.33,2.46-13.16,10.78-15.16,16.12-3.34,8.92-2.74,19,1.35,22.83,2.36,2.19,6.36,2.28,8.44.21ZM484,463.62c5.54-2,7.45-4.6,8.46-11.4a25.78,25.78,0,0,0,.23-7.43c-.52-1.91-.69-1.64-1.86,2.81a43,43,0,0,1-2.5,7.19c-1.61,3-4.9,6.43-6.21,6.43-3.54,0-4.65-10.17-1.95-17.85,1.35-3.84,1.37-4.17.19-3.95-.7.13-2.47,2.45-3.93,5.16-2.41,4.47-2.65,5.47-2.65,11.1s.2,6.39,1.88,8.17c1,1.1,2.39,1.84,3,1.65s3-1,5.32-1.88Zm-31.83-7.05a38.07,38.07,0,0,1,10.7-18.92c4-4,4.89-5.18,3.72-5.18-4.09,0-12.74,6.62-16.18,12.4-4.18,7-4.5,15.6-.58,15.6,1,0,1.61-1.05,2.34-3.9Zm32.06.28c3.34-3.7,6.43-16.09,5-20.27-1-3-1.51-3.17-3.35-1.13-2.57,2.84-5,11.07-5,17.11S481.74,459.58,484.22,456.85Zm-8.56-32.33a15.15,15.15,0,0,0-3.32-2.46c-3.59-2.25-8.79-8-8.79-9.72,0-.63.78-1.06,1.9-1.06,2.8,0,5.16-2.68,4.56-5.18-.68-2.81-2.43-3.9-6.26-3.9-4.52,0-7,2.46-7,6.92,0,4.14,2.71,8.12,7.69,11.32C469.24,423.52,475.66,425.86,475.66,424.52Zm-70.16-9.83c11.85-3.08,18.75-11.88,21.78-27.77,1-5.38.28-14-1.19-13.69-.41.09-1,2.13-1.25,4.54-.59,5.06-3.63,13.62-6.09,17.1-2.84,4-6.94,7.81-10.26,9.51s-7.75,2.16-7.75.87c0-1.57-2.74-2.21-5.95-1.39-2.29.58-3.51,1.41-4.3,2.94-1.53,3-1.39,4,.85,6.22,3,3,7.3,3.46,14.16,1.67Zm1.68-12.4c3.32-1.53,6.27-4.21,9.55-8.7s2-4.47-2.72-.09a47.54,47.54,0,0,1-8.35,6.09C399.24,402.94,400.57,405.32,407.18,402.29Zm-7-2.35c4.1-1.21,13.27-7.69,16.29-11.5,3.29-4.13,5.92-8.73,6.54-11.38.73-3.16-1.12-2-3.28,2.13-2.27,4.28-8,9.41-14,12.49a23.65,23.65,0,0,1-10,2.75c-5.83.44-7.77-.28-7.77-2.89,0-3.24-8.06-4.19-11.12-1.32-2.05,1.93-2.15,2.94-.6,5.95,2.77,5.34,13.19,7,24,3.77Zm3-9.61c5.77-2.46,10.9-5.81,12-7.84s.1-1.84-4.18,1.22c-4.63,3.3-11.16,6.38-13.55,6.38-2.89,0-6.5.89-6.5,1.61C390.91,393.16,398.48,392.32,403.15,390.33Zm48-3.34c2.38-2.24,2.53-7.21.28-9.62a5.05,5.05,0,0,0-2.61-1.66c-1.53,0-3.42,3-3.42,5.47,0,1.74-.32,2.1-1.92,2.1-2.61,0-7.06-2.39-9.76-5.23-3.06-3.22-3.88-2.93-1.87.65a28.23,28.23,0,0,0,9.39,9.49,9.34,9.34,0,0,0,9.91-1.2Zm-54.54.76c8.6-1.59,16.41-7,20-13.78q1.53-2.87.87-4.05c-.54-1-.95-.71-2.3,1.46-2.49,4-8,8.1-13.58,10.08-6.39,2.25-7.36,2.25-10.12-.07s-3.25-2.35-5.57,0c-2.67,2.67-2.32,3.8,1.74,5.59,4.3,1.9,3.46,1.82,8.91.81ZM81.91,383.9c2.86-2.68,1.87-5.92-1.8-5.92-1,0-1.74-.31-1.74-.68,0-1.84,10.51-6.13,15-6.13,3.57,0,11.45-1.67,11.45-2.42,0-.33-.93-.61-2.08-.62a8.71,8.71,0,0,1-3.68-.94c-.87-.52-3.94-2.19-6.81-3.71a33.78,33.78,0,0,1-13-12.22c-2.88-4.48-3.83-7.55-4.34-14.1-.58-7.3.36-9.4,4.34-9.74,2.54-.21,2.89-.51,3.7-3.22,1.75-5.84-1.55-8.58-8.13-6.74-5.5,1.54-8.54,6.4-9.16,14.65a28.56,28.56,0,0,0,4.63,18.19c2.4,3.73,8.12,9.52,9.41,9.52a9,9,0,0,1,2.78,1.84,21.46,21.46,0,0,0,5.6,3.08c5.5,2,7,2.85,6,3.46a4.59,4.59,0,0,1-3-.2c-1.7-.59-3.38-.34-8.1,1.23-6.21,2.07-9.23,4.4-10.68,8.23-1.13,3-1,3.82.76,6.09C75.15,386.14,79.36,386.3,81.91,383.9Zm61.48-.31c1.82-1.53,2.33-2.56,2.32-4.73,0-7.24-5.73-10.24-19.2-10.09-4.12.05-7.67.27-7.89.49s1.14.4,3,.4c2.53,0,5.08.84,9.78,3.22,3.49,1.78,6.35,3.71,6.35,4.29s-1,1.39-2.27,1.8c-4.41,1.42-5.06,2.66-2.65,5.06S140.4,386.1,143.39,383.59Zm259.83-5.19c4.62-2,9.63-6,9.63-7.69a1,1,0,0,1,.88-1c.49,0,.66-.23.38-.51s-1.27.19-2.21,1.05a18.71,18.71,0,0,1-11.16,4.55c-3.49.32-4.39.16-4.77-.82-.69-1.79,3.78-7.25,8.45-10.33l4-2.65-3.58-.23c-2.8-.18-4.64.28-8.31,2.09-5.84,2.87-7.44,5-6.22,8.22a4.78,4.78,0,0,1,.05,4.05c-.69,1.51-.52,2,1.18,3.44,2.65,2.23,6.45,2.19,11.66-.12ZM374,377.13c1.58-1.32,1.27-6.25-.5-7.85s-1.91-3.78-.38-7.45c1.89-4.53,5.32-7.75,10.41-9.79,8.34-3.33,11.54-3.76,18.35-2.46,7.17,1.37,6.43,1.32,6.43.42,0-.41-1.11-1.33-2.46-2.05-1.92-1-4.36-1.32-11.16-1.34-13.3,0-19.13,2.35-26.24,10.68-2.84,3.32-3.54,4.77-4.24,8.88-1,6.16-.19,10.24,2.48,11.62a7.79,7.79,0,0,0,7.31-.66Zm13-.81c1.07-1.08,1.18-4.31.19-5.87s1.09-4.87,4.5-7.59c5-4,11.17-5.18,21.19-4.18,4,.4,4.06.37,1.89-.62-6.77-3.08-16.36-3.28-24.39-.5-5.31,1.85-8.27,4.08-10.89,8.2-2.81,4.43-2.87,7.78-.18,9.9,2.19,1.72,6.27,2.07,7.69.66Zm21.32-5.9c4.65-2.35,8.35-5.65,8.35-7.48,0-1.55-5.26-.66-10.08,1.7-4.22,2.06-9.87,6.77-9.08,7.56C398.7,373.42,404.12,372.53,408.29,370.42Zm-31.36-4.59c3-5.78,12.51-11.55,20.33-12.3,2.45-.24,4.82-.8,5.26-1.24,1.23-1.23-7.78-1-13.76.36-8.1,1.85-11.17,4.3-13.38,10.73-.83,2.43-.8,4.76.07,4.76a8.29,8.29,0,0,0,1.48-2.31Zm-273.59-.28A45.41,45.41,0,0,0,97.21,362a41.83,41.83,0,0,1-9-6.36c-4-4.35-6.33-11.64-6.15-19.3.13-5.36,0-5.91-1.44-6.37-2-.64-3.79.8-3.79,3.07a3,3,0,0,1-.79,2.25.89.89,0,0,0-.14,1.37,23.94,23.94,0,0,1,1.66,5Q81.09,356,93.34,361.76c3.21,1.52,6.35,3,7,3.39C101.54,365.84,103.34,366.07,103.34,365.55Zm28.21-1.26c11.63-3.9,20.71-12.58,23.71-22.67,2.3-7.77.71-18-3.53-22.54-2-2.14-6.81-3.39-9.35-2.42-5.11,1.94-3.81,8.8,2.14,11.35,4,1.7,4.64,3.31,4,9.55a29.45,29.45,0,0,1-8,16.43c-3.39,3.45-13.31,9.61-15.48,9.61a5.42,5.42,0,0,0-2.5,1.11c-1.38,1-1.29,1.12,1.39,1.14A30,30,0,0,0,131.55,364.29Zm-23.47-6.14a16.29,16.29,0,0,0-1.14-4.21c-2-4,2.45-18.34,5.69-18.34,2.57,0,5.38,10.7,4.65,17.74-.43,4.14-.37,4.44.63,3.07,3-4.11,4.36-17.63,2.19-21.72-1-1.82-6.26-4.23-8.06-3.67-.42.13-2.16.55-3.87.94-4.19.93-4.83,2.64-4.83,12.78,0,7.59.18,8.67,2.08,12.37C107.72,361.6,108.54,361.92,108.08,358.15Zm5.84.19c1.78-3.5,2-9.63.59-15.74-1.12-4.83-2.53-5-4.69-.55s-1.57,15.76.87,18.21C112.17,361.73,112.19,361.72,113.92,358.34Zm-9.23.91c-2-2.33-3.89-12.43-3.43-18.53.35-4.5,1.36-8.55,2.59-10.33a10.5,10.5,0,0,1,3.06-.6c3.71-.4,5-1.69,4.32-4.35-.72-2.88-3.35-3.95-6.53-2.65s-4,2.31-6.22,7.14a25.82,25.82,0,0,0-2,16.18c1,5.91,2.61,9.4,5.54,12.33C104.39,360.75,106.59,361.44,104.69,359.25Zm-8.92-.85a3.11,3.11,0,0,0-1.18-1.64c-1.77-1.48-2.51-3.18-4.13-9.61s-1.9-10.46-.74-11.17c.41-.26.75-2,.75-3.9,0-4.17,1.54-7.6,5.2-11.57,2.4-2.61,3.23-3,6.52-3.22s3.85-.47,4.49-2.29c1.66-4.75-3.41-7.9-9-5.57-9.71,4.06-13.5,11.68-13.6,27.32-.06,7.95.06,8.58,2.39,13.25a19.36,19.36,0,0,0,5.3,6.95C94.8,359.13,95.77,359.48,95.77,358.4Zm36-.43c4.14-1.73,10.56-8.71,12.3-13.39a31,31,0,0,0,1.79-12.12c-.1-1.26-4.14-3.17-5-2.35a13.51,13.51,0,0,0-.44,4.37,31.48,31.48,0,0,1-1.53,8.38c-1.59,4.67-7.59,14.19-9.72,15.43C127.29,359.39,128.79,359.2,131.73,358ZM98,356.44A20.22,20.22,0,0,0,97,353.6c-3.27-7.6-3.45-18.85-.41-24.93a30.2,30.2,0,0,1,4.36-6.12l2.73-2.84h-2.46c-3,0-5.39,2.36-8.09,8.05-1.71,3.62-1.91,4.94-1.81,12.11.11,8.32.82,11.17,3.71,14.84C96.44,356.54,98,357.45,98,356.44Zm37.26-10.1c3-6.2,3.76-15.1,1.72-21.43-3.68-11.39-12.27-18.73-19.25-16.46-3.37,1.1-3.81,1.77-3.83,5.75,0,4.24,1.55,5.09,8.12,4.38,4.89-.52,4.91-.51,7.4,2.13,3.08,3.26,4.4,8.86,3.94,16.62-.4,6.66-1.47,10.76-3.37,12.91s-3.28,5.49-2.61,6.16C128.26,357.25,132.74,351.53,135.3,346.34Zm232.37,8.05c1.3-1.75,1.39-2.45.71-5.15s-.61-3.28.76-4.56c1.84-1.72,7.26-4.34,11.74-5.69,6.5-2,19.87.73,25.16,5.06,2.53,2.08,4.38,1.63,2.17-.52s-13.87-7.43-18.35-8.39c-5.81-1.25-13.83-1.32-17.19-.16-8.13,2.81-14.31,9.41-14.31,15.29,0,6.05,5.92,8.67,9.31,4.12Zm-243.93-2.9a21.54,21.54,0,0,0,1.89-4.83c1.62-5.25,1.27-15.25-.68-19-2.47-4.78-3.85-5.94-6.9-5.82-3.38.12-3.94.57-4.53,3.57-.4,2.07-.15,2.39,3.2,4.14,5.19,2.7,5.92,4.59,5.9,15.37,0,4.92.12,8.5.3,7.95A3.42,3.42,0,0,1,123.74,351.49Zm6.06-4.1c1.35-2.41,1.68-4.33,1.79-10.21.13-7.46-.57-10.44-3.46-14.63-1.46-2.11-3.86-2.75-4.77-1.27-.28.45.16,1.55,1,2.46,3.59,4,4.87,11.47,3.73,21.7-.34,3.12-.46,5.51-.26,5.3A38,38,0,0,0,129.8,347.39Zm246.75,1.39c3.11-2.69,9.89-4.93,16.24-5.38,9.61-.68,7-2-4-2.08-7.77,0-9.39.18-12.84,1.74-4.81,2.18-5.82,3.3-5.2,5.79.41,1.63.78,1.84,2.55,1.42A9.17,9.17,0,0,0,376.55,348.78ZM414,345c-.7-6.55,0-10.43,2.44-12.83,1.7-1.7,2.38-1.89,5.13-1.48s3.21.31,3.64-1.3c1.31-4.89-.75-7.45-6-7.45-8,0-11.24,9.08-7.71,21.38.45,1.56,1.1,2.84,1.45,2.84s.64.85.64,1.89.21,1.89.46,1.89.23-2.22-.06-4.94ZM981.17,498.37c-1.77-.48-1.79-.55-.37-1.11a76.07,76.07,0,0,1,9.08-1.67c20.77-2.94,39.65-9.75,58.73-21.2,10.9-6.53,18-14.58,24.88-28.13,3.67-7.26,3.94-8.18,4.34-14.79.67-11.23-2.38-17.64-10.19-21.44-4.25-2.07-4.7-2.13-18.43-2.27-14.81-.15-18.78-.77-23.84-3.7-4.77-2.76-7.11-6.32-7.11-10.79,0-5.42,3.31-8.5,11.53-10.73a16,16,0,0,0,5.58-2.81c1.76-1.64,2-2.28,1.63-5.62a8.79,8.79,0,0,0-2.51-6c-4.29-4.48-13.21-7.11-13.21-3.9a3.51,3.51,0,0,0,.85,2.2c1.93,1.94-3.26,4.85-7.48,4.21-4.56-.7-7.22-6.77-4.15-9.45,3.41-3,4.59-3.19,14.27-2.6,7.27.45,14.6,3.39,18.45,7.4,6.12,6.38,4.25,11.67-5.75,16.25-9.25,4.23-9.7,15.35-.81,19.89,4.71,2.4,10.06,2.81,20.74,1.58,11-1.27,16.72-.38,22.4,3.52,11.63,8,14.09,19.48,7.29,34-6.16,13.18-16.68,24.56-31.34,33.93a28.06,28.06,0,0,0-4,3.2,5.94,5.94,0,0,1-3,1.77c-.66,0-3.45,1.15-6.21,2.56s-6.56,3.24-8.47,4.08c-4.23,1.88-29.29,8.91-34,9.54-6.13.83-14,2-15.51,2.26a9.41,9.41,0,0,1-3.41-.21ZM95.39,496.79a12.06,12.06,0,0,0-3.7-.7c-1.2,0-5-1.39-8.44-3-5-2.39-6.86-3.73-9.44-7-3.07-3.88-3.17-4.19-2.76-8.15.33-3.25.91-4.6,2.71-6.41,2-2,3-2.33,7.13-2.59,4.47-.29,5-.15,7.22,1.85,2.47,2.24,5.39,9,5.39,12.41,0,3.91-3.81,5.06-6.68,2-2-2.18-2.08-3.67-.13-5.44s1.93-3.88,0-4.93c-3.22-1.72-7.54,1.64-7.54,5.87,0,5.93,3.39,8.58,13.55,10.58,5.44,1.07,6,1.06,8.8-.27,2.44-1.15,3.14-2,3.74-4.38.51-2.07.48-3.05-.09-3.24a41,41,0,0,1-4.37-2.53c-3.18-2-3.53-2.52-3.32-4.68.17-1.77.93-2.89,2.8-4.15,5.78-3.88,17.58-1.1,40.1,9.44a45.54,45.54,0,0,0,6.43,2.48c1.3.32,5.26,1.6,8.79,2.84s9,2.86,12.11,3.59c8.41,1.95,9.34,2.26,9.67,3.24.16.5-.27,1.12-1,1.38-1.43.55-13.87-2.16-19.9-4.33a24.16,24.16,0,0,0-5.69-1.45,6.67,6.67,0,0,1-3.19-1,13.75,13.75,0,0,0-3.77-1.57,48.2,48.2,0,0,1-6.81-2.7c-21.56-10.24-25.83-11.6-31.25-10-2.05.62-3.14,1.44-3.45,2.59-.58,2.25.21,2.89,4.56,3.68,5.19.95,8.15,4.25,7.58,8.47-.64,4.79-3.55,7.14-10,8.07-6.22.89-7.07.89-9.08,0Zm846.06,0c-.29-.46.94-.76,3.17-.77,3.41,0,16.08-1.32,29-3,3.12-.4,8.06-1.26,11-1.91s6.83-1.5,8.7-1.9c13.26-2.82,26.44-8.58,36-15.73,16.06-12.05,26.09-26.26,26.09-37,0-6.37-2.21-9.31-7-9.35-3.64,0-4.39-1.68-2-4.32C1050,419,1057.2,417.62,1062,420c3.42,1.71,7,7.46,7,11.26,0,5.05-1.22,8.56-6.41,18.47-1.86,3.55-14,16.1-20,20.61-4.24,3.22-26.66,15.09-28.49,15.09a43.06,43.06,0,0,0-5.32,1.89,136.19,136.19,0,0,1-13.3,4.05c-7.78,2-13.41,3-29.92,5.38-7,1-23.45,1-24.07,0Zm-137-1.55c-5.47-.72-8.16-1.69-11.92-4.27-3-2.09-3.56-3.94-1.65-5.85s3.1-1.43,5.4,2c1.89,2.81,2.73,3.34,7.05,4.49a31.56,31.56,0,0,0,17,.22c5.49-1.42,6.63-2.36,3.68-3-3.53-.77-5.37-1.92-6.27-3.89-1.68-3.69,1.93-6.63,3.79-3.09,1.2,2.29,2.12,2.81,5,2.82,3.53,0,5.88-1.09,9.6-4.52,7.76-7.15,9.47-20.72,3.47-27.55-2.53-2.88-2.72-3.48-1.12-3.48,1.78,0,6,5.13,7,8.57,3.65,12.2-3.37,25.81-17.2,33.33-8.37,4.55-13.93,5.53-23.84,4.22ZM923.28,494c-4.6-.52-7.33-1.1-6.94-1.49.22-.22,7.48-.7,16.13-1.06,32.67-1.35,51.12-4.73,68.43-12.51,17-7.65,31.5-21.56,30.84-29.59-.23-2.71-.41-2.9-3-3.11-1.76-.15-3.06.19-3.69.95-1.31,1.57-3.06,1.48-3-.16,0-2.1,2.64-7.22,4.62-9,4.58-4.21,11-4.92,14-1.54,5.69,6.41,2.68,15.93-8.73,27.57-17.3,17.65-36.61,24.61-80.31,28.92-8.67.86-24.77,1.46-28.38,1.06Zm-702.64-4.15c-28.65-6.06-45.59-12-60.55-21.21C150,462.44,137,448.46,133.5,440.16c-.81-1.94-1.79-4.1-2.17-4.8a25.57,25.57,0,0,1-1.19-6.14c-.54-5.26.32-9.13,2.64-11.8,1.63-1.88,6.09-3.87,8.66-3.87,4.51,0,9.15,3.79,11.49,9.41,1.42,3.4.43,4-3.63,2.34-2.21-.92-3.16-1-4.71-.27-2.43,1.11-2.72,2.39-2.42,10.84.35,9.69,3,15.05,11.16,22.52a94.25,94.25,0,0,0,21.14,14.31c12.76,6,16.37,7.32,27.25,10.2,16.19,4.27,30.36,6.32,43.69,6.32,5.31,0,9.39.32,9.66.76.61,1-29.72.87-34.43-.13Zm684.86-1.09c-11.63-1.23-27.86-4.4-33.24-6.48a24.92,24.92,0,0,0-3.4-1c-4.5-.9-11-3.6-11-4.55,0-1.35.35-1.34,10.76.13,9.73,1.38,23.81,1.09,27.46-.57,4.24-1.92,10.1-6.3,11.49-8.58,3.4-5.59,4.1-10.47,2-14-2.2-3.73-6.22-4.49-18.1-3.45-5.43.48-7.91.34-11.72-.63-6.09-1.57-7.86-2.73-9.76-6.46-1.8-3.54-1.91-5.72-.43-9.26s2.51-4.24,7.39-5.22c5.47-1.1,8.28.25,10.55,5.07,1.88,4,1.2,6.66-2,7.89-3,1.16-3.37.95-3.37-2.19,0-2.39-.31-3-1.66-3.38a5.3,5.3,0,0,0-6.19,3.9c-1.08,3.78,1.43,6,7.85,6.81,4.56.6,7.7.44,20.26-1,4.06-.47,5.41-.29,9.3,1.26a24.28,24.28,0,0,1,7.28,4.6c6.77,6.93,2.38,18.22-9.22,23.71-7,3.29-15.09,4.89-25.13,4.94-7.59,0-8,.11-5.52,1,1.46.54,6.74,1.8,11.73,2.79,8.17,1.63,11,1.8,28,1.76,17.61-.05,19.58-.2,28.37-2.1a87.65,87.65,0,0,0,12.48-3.46c1.68-.78,4.92-2.1,7.21-2.94,15.94-5.83,29.72-15.42,38.14-26.54,6.62-8.74,10-17.34,10.79-27.19.47-6-.61-14.44-2.34-18.31a58.06,58.06,0,0,0-8.62-13.4c-6.45-6.68-12.24-9.47-23-11.12-9.35-1.42-14.16-.38-15.73,3.4a8.67,8.67,0,0,1-3.1,3.52c-1.19.7-2.17,1.63-2.17,2.06,0,1.85,4.54,10.16,6.17,11.31s1.81,1.18,2.54-.6c1.3-3.12,3.5-5,5.84-5,4.75,0,7.4,3.47,7.4,9.69a8.77,8.77,0,0,1-2.32,6.66c-2.76,3.51-5.26,4.76-9.63,4.8s-8.73-2.28-10.31-5.6c-.7-1.48-1.51-2.69-1.8-2.68s-1.29,2.47-2.21,5.48c-2.6,8.5-6.3,14.08-11.81,17.82-5.88,4-8.35,4.69-16.48,4.69-9.09,0-13.5-1.76-16.74-6.68-1.64-2.48-1.76-7.17-.22-8.45,1.84-1.52,1.32-2.83-1.32-3.34-3.89-.75-9.25-4.56-11.87-8.43-4-6-4-9.69,0-14.33,2.07-2.35,2.76-2.66,6-2.66s3.91.32,5.59,2.33a7.61,7.61,0,0,1,2,5.26c0,2.42.43,3.24,2.46,4.75a21.78,21.78,0,0,0,5,2.69c3.23,1.08,11.71,1.16,11.05.1-.25-.41-2.1-.75-4.09-.75-6.76,0-14.36-7.17-13.35-12.58a4.78,4.78,0,0,0-1.06-4.57,7.92,7.92,0,0,1-1.55-4.1c0-3-1.23-3.42-1.78-.67-.62,3.07-3.45,5.75-7.15,6.74-3.91,1.05-6.46,0-8.06-3.4-2.68-5.63-.72-13.15,4.93-18.92l3-3.07-2.17-1.6a12.91,12.91,0,0,1-4.66-8.88c0-2.19,3-8.12,5.46-10.78a8.46,8.46,0,0,1,3.72-2.14,7.77,7.77,0,0,0,3.12-1.39c.69-.68,3.23-.77,9.64-.37,12.28.77,20.41,4.29,27.7,12a17.19,17.19,0,0,0,3.38,3.05c.28,0,.67-2.16.88-4.79.42-5.2,2-9.19,4.78-12.21,4.68-5.05,19.26.78,19.26,7.71,0,3.35-1.77,7.45-3.67,8.47-2.39,1.28-4.35,1-6.78-1.07-3.11-2.62-3.72-1.55-4.36,7.69-.7,10.1-.3,11.6,3,11.6a7.65,7.65,0,0,1,4.79,1.86c2.18,1.84,2.3,1.85,9.65,1.05a41.71,41.71,0,0,1,13.12.16c5.11.88,6.29,1.44,11.78,5.57,6.55,4.95,12.83,12.78,17,21.25,2.35,4.73,3.92,12.35,3.93,19.05,0,9.16-5.78,22.95-13.34,31.78-9.8,11.45-19.55,18.24-37.72,26.27-5.09,2.26-21.85,6.95-28.5,8-7.2,1.13-26.41,1.31-35.57.34Zm30.38-56.62c9.28-2.82,14-7.8,18.4-19.56a44.38,44.38,0,0,0,1.92-5.86c0-1.68-1.28-.52-3,2.76-2.28,4.23-10.27,11.23-15.66,13.7a23.89,23.89,0,0,1-7.19,1.95c-3,.14-3.33-.05-4.3-2.24-.85-1.95-1.56-2.44-3.78-2.65-5.35-.51-6.74,0-7.67,2.83-.73,2.21-.64,3,.55,5.06,2.06,3.56,5.65,5.09,12,5.08a37.22,37.22,0,0,0,8.81-1.07ZM938.81,420c7.65-4.92,14.36-12.45,14.36-16.1,0-1.69-.25-1.54-2.6,1.54-3.72,4.88-14.58,11.73-20.67,13-2.37.52-3.29,2.34-1.89,3.77C929.19,423.4,935.47,422.09,938.81,420Zm-9.44-3.79c8.8-2.3,16.83-8.39,22.91-17.38,2.49-3.69,3.92-6.61,3.92-8,0-3-.43-2.77-2.11,1a24.47,24.47,0,0,1-3.63,5.61c-1.21,1.31-3.11,3.38-4.21,4.6a34.21,34.21,0,0,1-7.74,5.09c-9.51,4.76-18.26,4.57-25.94-.56-3.41-2.28-3.69-2.71-4-6.21-.31-3.08-.75-4-2.39-4.88-2.79-1.56-5.65-.17-7.18,3.49-1.05,2.5-1.05,3,0,5.21,4.93,10.34,17.61,15.34,30.43,12ZM975.71,412c4.08-2.49,5.35-8.8,2.41-12-2.77-3-5.84-1.93-6.51,2.21-.39,2.48-.75,2.94-2.3,2.94-2.34,0-5.9-3.74-8.24-8.66-2.2-4.65-3-3.34-2.25,3.68.59,5.55,2.65,8.93,7.06,11.6,3.47,2.1,6.59,2.16,9.83.19Zm-34.89-10.54c5-2.7,7.79-5,9.7-7.88,1.77-2.71.73-2.53-3.73.64-7.93,5.64-17.31,5.65-24,0-5.78-4.86-11.07,1.24-5.56,6.42,4.87,4.57,15.91,4.95,23.6.81Zm1-6.8c3.89-1.58,5.27-3.52,1.81-2.55-5.64,1.57-16.15-.4-16.15-3,0-3,4.59-6.34,12.48-9l5.3-1.77-4.92-.23c-5.23-.25-12.2,1.42-14.57,3.48a22,22,0,0,0-3.24,4.58l-1.92,3.44,2.42,1.93c6.06,4.84,12.1,5.85,18.79,3.13Zm3.74-6c3.49-1.34,6.68-4.71,5.8-6.12-1.85-3-20,1.79-20.71,5.46C930.17,390.26,940.37,390.71,945.53,388.72Zm-41.89-1.25a6,6,0,0,0,1.86-4.3c0-3.49,2.62-8.43,6.19-11.66,8.56-7.73,21.12-8.43,31.71-1.77,4.31,2.71,5.3,2.79,2.91.22-6.69-7.16-19.1-9.64-31.55-6.3-11.57,3.1-18.36,9.51-19.6,18.49-.38,2.84-.18,3.54,1.51,5.23,2.45,2.45,4.59,2.48,7,.09ZM920.35,385c3.5-7,8.67-9.5,19.77-9.6,3.43,0,6.24-.23,6.24-.46,0-1-7.34-2.24-13.06-2.23-9.49,0-16.45,2.61-20,7.48-3,4.05-1.44,9.16,2.79,9.16C917.88,389.33,918.47,388.73,920.35,385Zm-8.67-6.2c2.6-4.56,12.92-9.06,21.05-9.17,3.08,0,3.23-.13,1.53-.83-3.37-1.38-12.79-.36-17.13,1.85-3.74,1.91-8.6,7.62-8.6,10.11C908.53,382.29,910.3,381.19,911.68,378.78Zm37.71-12.65c0-.7-1.79-3.62-4-6.51-4.28-5.65-10.37-9.86-18.64-12.9-5-1.84-13.89-2.15-18.88-.66-6.7,2-10.87,8.3-8.81,13.3.9,2.19,3.75,4.28,5.24,3.85.43-.13,1.74-.45,2.91-.7,1.6-.35,2.47-1.29,3.55-3.8,1.61-3.77,3.63-5.35,7.78-6.11,3.11-.57,13.94.9,17.59,2.38,3.22,1.31,8.86,6.46,10.59,9.68,1.58,2.92,2.64,3.51,2.64,1.47ZM955.33,352c.94-2,2.19-3.81,2.78-4s2.26.31,3.7,1.2c2.44,1.51,2.8,1.54,5.32.49,2-.84,2.69-1.58,2.69-2.92,0-2.28-2.78-4.93-6.55-6.23-2.65-.92-3.18-.87-5.93.63A10.83,10.83,0,0,0,953,345.5c-1.84,3.75-2.6,13.48-1.25,15.89,1,1.77,1,1.71,1.46-1.95a29.11,29.11,0,0,1,2.13-7.42Zm-16.16,8.54c-1.5-2.42-11.33-5.29-18.11-5.28-3.5,0-8,2.38-8,4.23,0,1,.54,1.15,2.83.79,7.74-1.19,14.34-1.28,18-.24,4.76,1.36,5.89,1.47,5.29.5ZM189.61,486.77c-38.1-9.08-70.62-31.9-79.22-55.59-2-5.55-2.45-16.64-.8-20.38a20.93,20.93,0,0,1,14.18-12.45c2.07-.59,8.32-1,15.89-1,15.74-.09,18.18-.72,21.29-5.57,2-3.17,2.25-4.06,2-8.29-.26-4.43-.5-4.95-3.65-8.16s-3.35-3.77-3.24-6.74a12.46,12.46,0,0,1,1.44-5.31c3-4.61,13.44-9.47,20.34-9.48,3.57,0,8.55,3.11,9.22,5.79s-.32,6.69-2,8.24c-2.17,2-9.89,2.46-12.43.79s-2.4-2.63.18-4.77c2.06-1.7,2.06-1.74.57-2.92-2.13-1.69-6.94-1-10.76,1.51-6.05,4-5.05,7.82,3.52,13.47,6.61,4.35,8.37,6.82,8.37,11.75,0,4.26-3.19,8.37-8.55,11-4.11,2-4.81,2.1-18.1,2.36-15.3.31-19.72,1.2-23.39,4.72-6.14,5.88-7,20.64-2,34.48,1,2.83,8.37,13.68,10.46,15.43,12.74,10.65,19.24,14.54,39.35,23.54a140.92,140.92,0,0,0,21.19,6.37c4.86,1,6.06,1.44,6.06,2.24,0,1-2.51.76-9.84-1Zm63.94.49c-34.75-2.71-58.9-9-74.55-19.4-12.66-8.41-21.06-19.29-21.69-28.06-.47-6.56,1.25-9.89,5.3-10.22,3.34-.27,7.24,2.23,9.65,6.19,2.13,3.49,1.91,5-.73,5-4.87,0-3.9,7.18,2,15S201.2,474.59,221,479.82a159.63,159.63,0,0,0,26,4.49,35.19,35.19,0,0,1,6.22.81c.34.21,7.62.38,16.19.37,9.46,0,15.39.27,15.13.7-1.11,1.78-15.52,2.28-31,1.07Zm6.44-3.34a168.85,168.85,0,0,1-18.92-3.06,77.1,77.1,0,0,1-20.42-7c-24-11.53-36.17-23.82-42.91-43.3-4.71-13.62-3.57-23.66,4.41-38.91,2.78-5.33,11.3-14.34,15.36-16.27A12.27,12.27,0,0,0,201,373a10.29,10.29,0,0,1,3.32-2.14c3.47-1.42,15.66-1.08,22.56.62,5.37,1.32,6,1.34,7.19.23a8.81,8.81,0,0,1,4.37-1.46l3-.25,0-5.29c0-11.95-.73-14-4.74-14-3.61,0-4.12-.39-6.54-4.72-1.73-3.11-1.93-4.14-1.5-7.57.68-5.38,2.81-7.66,8.32-8.91,3.08-.69,4.93.36,7.93,4.51,3.85,5.31,5.61,14.41,3.75,19.3-.57,1.49-.5,1.94.3,1.94a1.63,1.63,0,0,0,1.41-1,47.78,47.78,0,0,1,4.34-5.72c4.06-4.86,12-10.73,14.56-10.73a10.78,10.78,0,0,0,3.75-1.22c2.38-1.22,3-1.2,11.57.41,4.37.82,9.31,3.09,11.1,5.09,2.61,2.91,5.17,8.84,5.17,12a7.69,7.69,0,0,1-2.24,5.75,10.78,10.78,0,0,0-2.27,3.55c0,.51,1.09,2.72,2.46,4.92,3.51,5.61,4.32,7.76,4.32,11.42,0,3.95-1.49,6.19-4.85,7.3a6.21,6.21,0,0,1-5.19-.23c-3.06-1.29-5.85-4.88-5.85-7.56,0-3.5-2.78-8.61-5.81-10.68-4-2.73-11.64-5-17-5-5.83,0-5.74,1.17.13,1.78,5.06.53,13.29,3.83,17.07,6.84,5.24,4.19,6.26,9.83,2.39,13.36-1.9,1.74-2.23,2.42-1.51,3.14a6.19,6.19,0,0,1,.92,3.55v2.64l2.1-2a14.88,14.88,0,0,1,4.52-2.86c2.08-.72,2.73-.61,4.7.79a7.49,7.49,0,0,1,2.74,3.66c.25,1.12.6,2.58.78,3.25.41,1.55-2.27,7.87-4.69,11-1.33,1.74-3.09,2.8-6.19,3.74-5.19,1.57-6.11,2.22-4.87,3.45,2.22,2.22.16,10.51-3.36,13.54-2.4,2.07-8.23,3.2-14.12,2.76-14.64-1.11-23.21-8.58-26.17-22.82-1.28-6.17-2.7-8.05-3.54-4.69-.27,1.06-2.25,3.27-4.45,5-3.43,2.64-4.49,3.06-7.76,3.06-8,0-11.72-3.33-12.21-11-.29-4.57-.23-4.75,2.7-7.82,2.4-2.52,3.51-3.14,5.64-3.14a7.84,7.84,0,0,1,7.09,5.61c1.47,5.83,9.41-3.48,9.41-11a3.79,3.79,0,0,0-1.83-3.32,7.66,7.66,0,0,1-2.59-3.34c-1.13-3.26-4.72-4.12-14.41-3.47-4.41.29-8.87,1-9.92,1.55s-4.23,2.13-7.07,3.5c-6.35,3.06-13.33,10.18-16.12,16.43a59.89,59.89,0,0,0-4.24,19.8c-.27,21.46,14,41.17,38.6,53.22,18.17,8.91,39.64,12.77,70.36,12.65,7.77,0,12.3.24,12.3.72s-.08.77-.19.78c-3.48.44-35,.41-40.67,0Zm12.87-55.31c5.1-1.09,7.54-3.26,8.07-7.17.48-3.58-1-5.62-4-5.62a6.27,6.27,0,0,0-6,3.8c-1.11,2.15-1.39,2.25-6.09,2.25a19.18,19.18,0,0,1-14.45-6.17c-3.19-3.38-7.65-12.15-8.26-16.26-.59-3.92-1.6-4.89-2.28-2.18-1,4,1.66,15.61,4.47,19.66a28.21,28.21,0,0,0,14.3,10.67C264.89,429.61,267.36,429.79,272.86,428.61Zm-3.43-10.23c1.77-1.78,1.05-2.85-2.31-3.43-8.58-1.48-13.77-4.81-18.7-12-3.91-5.69-4.91-5.8-3.07-.31,2.19,6.53,7.49,12.92,12.32,14.86C263.26,419.75,267.72,420.08,269.43,418.38Zm12.72-7.16c9.68-3.22,14.05-8.65,12.36-15.36-.95-3.78-6.54-3.41-8.09.54-2.38,6.11-3.32,7.45-6.52,9.32-2.84,1.67-4.2,1.95-9,1.9a41.63,41.63,0,0,1-7.34-.57,30.49,30.49,0,0,1-17.13-14.43c-4.48-8.73-5.17-6.43-.8,2.62,5,10.25,9.78,14.37,19.24,16.43,6.75,1.46,12,1.33,17.33-.45Zm-53.45-3.38c1.81-1.06,3.29-2.32,3.29-2.8a6.79,6.79,0,0,1,1.81-2.8c2-2.08,4.28-8.11,4.18-10.85,0-1.13-.2-1.31-.49-.54a44.23,44.23,0,0,1-6.22,8.93,20.68,20.68,0,0,1-3.73,2.13c-3.19,1.43-4.31.54-4-3.17.43-5-3.65-6.61-7.11-2.86-1.43,1.53-1.85,2.81-1.83,5.48,0,7.48,7,10.66,14.09,6.48Zm47.17-3.11c3.29-.65,7.58-5,7.57-7.67V395l-1.95,2.47a15.76,15.76,0,0,1-4.12,3.6c-4.89,2.53-14.7.68-22.65-4.26-3.87-2.4-4.55-2.32-2.57.3,4.63,6.13,14.8,9.4,23.73,7.61Zm.3-5.85c3.63-1.52,6.07-5.21,5.2-7.86-1.08-3.23-3.51-3.07-7.38.5-5.37,4.94-8,4.89-19.05-.36a53.52,53.52,0,0,0-6-2.58c-2.48,0,9.71,8.3,14.81,10.09,4.25,1.49,9.12,1.57,12.38.21ZM271,391.77a26.3,26.3,0,0,0,2.56-2.6l1.81-2.05-1.69-4.5c-1.56-4.18-2-4.64-5.59-6.25-4.74-2.12-18.34-3.11-17.74-1.3.19.59,1.7,1.12,3.58,1.26,5.22.38,13.5,6.79,12.42,9.61-.51,1.34-5.89,2.9-8.36,2.42-2.12-.4-3,.6-1.17,1.26.72.26,2.51.95,4,1.54,2.85,1.17,9,1.53,10.22.61Zm-8.64-6.22a1.32,1.32,0,0,0,1.45-1.1c0-3.14-15-8-17.72-5.76a3.22,3.22,0,0,0-1.2,2c0,2.05,11.76,6.11,15,5.19A10.85,10.85,0,0,1,262.32,385.55Zm20.22-1.67a5.68,5.68,0,0,0,.91-3.33c0-3.55-5.84-8.6-12.45-10.77s-19.34-2.16-19.34.07c0,.42.94.57,2.15.32,2.36-.47,11.5,2.09,16.39,4.59,3.53,1.8,5.28,3.61,6.06,6.25a10.21,10.21,0,0,0,1.32,2.84c1,1.2,3.77,1.22,5,0Zm16.61-1.52c1.11-.92,1.28-6.36.21-7a10.14,10.14,0,0,1-2-3.07c-1.85-3.9-8.75-9.82-13.75-11.79-3.65-1.45-5.8-1.72-13.43-1.74-8.43,0-9.39.12-13.43,2.1-2.39,1.16-4.35,2.46-4.35,2.88s.25.63.57.47c7.71-4,15-4.28,23.49-1s11.08,5.91,13,13.68a22.28,22.28,0,0,0,2.07,5.55c1,1.53,1.54,1.71,3.92,1.26A10.75,10.75,0,0,0,299.15,382.36Zm-39.34-29.23A23.5,23.5,0,0,1,276,348.19c10.62.78,12.36,1.67,11.56,6-.66,3.49,1.82,6,5.24,5.36,4.5-.89,5.42-4.41,2.61-10-1.38-2.76-2.5-3.74-6.61-5.76-4.51-2.22-5.53-2.42-11.55-2.32-7.26.11-10.56,1.27-17.64,6.16-4.89,3.38-11.73,12.19-11.73,15.1,0,.87,1.39,0,4.35-2.88,2.39-2.29,5.8-5.28,7.58-6.64Zm-13.71,4.61c.87-5.39.53-13.22-.7-16.17-1.34-3.2-5.5-7.48-7.27-7.48-2.78,0-3.94,1.79-4.3,6.61-.39,5.21.42,6.25,4.84,6.25,1.92,0,2.41.45,3.52,3.22a31.81,31.81,0,0,1,1.7,7.19c.23,2.18.69,4,1,4S245.78,359.71,246.1,357.74Zm38.1-2.37a4.47,4.47,0,0,0-1-3c-1.7-1.42-14-1.24-17.72.26-1.77.72-3.21,1.56-3.21,1.87s3.49.77,7.75,1a65.45,65.45,0,0,1,10,1.19C283.71,357.86,284.2,357.7,284.2,355.37Zm614.49,128c-4-.39-5.58-1.5-3-2,1-.21,7.26-.57,13.92-.8,16.9-.59,28.77-2.58,42-7,6.21-2.09,9.93-4.05,17.41-9.15,7.07-4.83,8.31-6.1,10.32-10.57,2.32-5.19,2.31-9,0-11.89-1.5-1.88-2.37-2.27-5-2.27-1.76,0-3.33-.37-3.49-.82s1.15-2.63,2.91-4.84c3.92-4.91,9.37-7.8,12.87-6.79,6.18,1.77,9.26,5.53,10.21,12.47.39,2.83.08,4.16-1.88,8.11-2.62,5.27-10.83,14.1-14.92,16a10,10,0,0,0-3,1.92c-.59.95-6.85,4.06-13.93,6.92-3.16,1.28-6.77,2.77-8,3.31-10.63,4.64-42.38,8.82-56.38,7.42Zm-625.84-2.58-10.24-1.4c-5.88-.81-24.14-6.52-30.59-9.57-8.12-3.84-18.1-11.44-22.32-17-11.93-15.69.72-31.3,16-19.8,3.68,2.76,3.26,4-1.19,3.43-3.34-.39-3.81-.25-5.3,1.65-1.21,1.54-1.63,3.1-1.61,6,0,3.38.44,4.4,3.25,8,10.66,13.78,36.37,24.35,64.45,26.5a84.21,84.21,0,0,0,15.51-.07C314,477,316,476.88,316,477.72a1.72,1.72,0,0,1-.74,1.28c-2.81,1.73-33.42,3.05-42.4,1.83Zm319.41-.48c-4.34-.82-8.08-5.34-7.22-8.74.42-1.69.3-1.73-5.47-1.72-7.14,0-10.69-1.58-14.86-6.66-3.46-4.23-5.26-8.43-6.52-15.29-.84-4.56-.81-6.42.23-13,1.72-10.84,5.56-21,9.23-24.48,2.44-2.29,3.81-1.2,1.89,1.5a66.32,66.32,0,0,0-6.73,14.81c-.43,1.67-1.2,6.38-1.72,10.47-1.4,11,.22,17.75,5.75,23.82,4.13,4.55,6.76,5.68,13.3,5.76,5.5.06,6.06-.09,8.16-2.1,4-3.8,3.81-9.75-.29-10.78-2.93-.74-4.14.74-3.24,4,1,3.54,0,4.44-4.53,4.36a15.35,15.35,0,0,1-14.33-10.91c-.7-2.62-.47-5.32,1.42-16.84.77-4.73.77-6.38,0-8.51-.93-2.6-.68-4.17.67-4.17,1,0,2.43,5.84,1.89,7.54-.72,2.25,1.16,2.73,2.78.71,3.29-4.14,5.91-11.17,5.91-15.88s-.67-6.74-3.25-9.58c-2.1-2.31-6.84-2.26-12.05.12-5.82,2.66-8.9,3.06-12.36,1.61-4.06-1.7-5.64-3.31-5.64-5.78,0-2.94,2.69-5.55,8.51-8.27,5.33-2.5,7.77-2.49,10.05,0,1.69,1.86.83,3-2.24,3-2.64,0-3.89.95-4.33,3.3-.46,2.52,1.81,3.18,7.08,2,13.36-2.89,17.95-2.39,23.1,2.51,3,2.84,3.29,3.46,3.35,6.94.11,5.16-3.57,12.41-7.15,14.12a38.82,38.82,0,0,0-6.77,5.09c-7.5,6.86-10.64,16-8.06,23.41.73,2.08,3.36,4.5,4.08,3.76a33.08,33.08,0,0,0,1.26-4.39c.81-3.3,1.54-4.49,3.59-5.87,2.26-1.52,3.38-1.71,9-1.54,9.31.28,9.25.39,9.37-17.11.13-19.69.9-34.55,1.8-34.54.49,0,.75,8.41.75,23.66,0,13,.28,24.2.62,24.87,1,1.92,5.77,3.54,10.54,3.56,5.13,0,8.48,2,10.12,5.9,1.37,3.29,1.33,5.61-.16,7.73-1.83,2.62-.59,2.95,1.94.52a11.83,11.83,0,0,0,3.16-6.26c2-8.79-2.3-16.29-16.68-29.3-4-3.6-5.37-6.64-5.37-11.71s1.75-8.44,5.57-11c2.76-1.82,3.66-2,7.67-1.71a62.4,62.4,0,0,1,10.32,2.08c5,1.49,6.1,1.6,8.08.77,4.38-1.81,3.66-6.11-1-6.11-2.56,0-3.28-.94-2-2.66,1-1.37,4.7-2.63,7.74-2.63,2.39,0,3.54.55,6,2.85,3.92,3.73,4.63,6.45,2.34,8.9-2.83,3-6,3.63-13.29,2.66a58,58,0,0,1-8.35-1.58c-9.93-3.78-16.08,8.66-10.47,21.17,2.12,4.71,4.29,7.32,5.49,6.57.39-.24.92-1.76,1.18-3.39.51-3.18,3-6.91,4-5.94.33.33.13,1.69-.44,3-1.89,4.45-1.88,10.71,0,14.65a23.58,23.58,0,0,1,2,8.89c.25,4.58,0,5.82-1.46,8.38a15.91,15.91,0,0,1-12.55,7.7c-4.62.37-8.09-.83-8.09-2.78,0-.61.78-1.23,1.74-1.36,4-.57,2.47-5.43-1.68-5.43-3.37,0-4.36,1.41-4.08,5.78.2,3.17.56,3.85,2.8,5.36,2.93,2,8.1,2.29,13.24.85,4.16-1.18,11.27-8.09,13.88-13.5,1.83-3.82,2-5,2-13.63,0-8.48-.21-10-2-14.64a61.25,61.25,0,0,0-7.25-13.94c-2.06-2.81-1.79-3.6,1-2.9,2.13.53,4.93,5.51,9,16,2.16,5.59,2.34,6.75,2.3,15.14,0,9.9-.34,11.12-5.06,19.72-2.7,4.95-3.34,5.57-8.7,8.56s-6.16,3.2-10,2.9a33.42,33.42,0,0,1-5.86-.9c-1.48-.49-1.7-.31-1.7,1.44,0,3.93-1.9,6.94-5.23,8.27-3.13,1.25-4.15,1.34-7.58.7Zm7.51-4.75c1.83-1.82,1.93-3.58.31-5.37a2,2,0,0,1-.48-2.62c.48-.85.39-2.39-.26-4.55-1.17-3.88-.28-8.21,1.93-9.39a6.73,6.73,0,0,1,7.62.93c1.32,1.4,1.53,2.3,1.16,5l-.44,3.31,2.46-.49c4-.8,5.48-2.9,5.48-7.55,0-5.6-1-6.53-6.85-6.53s-8.5-.91-10.71-3.6l-1.68-2-2.3,2.2c-2.1,2-2.89,2.24-9.45,2.67-8.53.56-10.25,1.61-10.25,6.22,0,4.22,1.11,5.89,3.9,5.89,2,0,2.27-.22,1.9-1.63-.6-2.31,1.37-5.67,3.65-6.24,5.61-1.41,10.23,7,6.47,11.83a7.58,7.58,0,0,0-1.47,4.08,27.8,27.8,0,0,1-.51,4.76c-.41,2-.23,2.8.86,3.59,2.11,1.55,6.89,1.28,8.66-.5Zm308.16,3.68c.18-.57,2.21-1.4,4.5-1.86,8.63-1.73,21.81-8.24,23.3-11.5,1.15-2.51,1-5.43-.34-5.94-1.66-.63-1.38-3.11.46-4.1,2-1.08,8,1,8.6,3,.57,1.81-1.53,6.66-3.39,7.82-1.53,1-2.07,2.85-.81,2.85a38.15,38.15,0,0,0,5.86-2.74c6.17-3.27,12-8,13.53-10.94,1.42-2.76,1.41-5.72,0-6.27-3.26-1.25,1-5,5.69-5,2.72,0,6.79,3.52,6.79,5.88,0,4.48-9.72,13-20.94,18.39-10.13,4.86-11.9,5.4-26.73,8.23l-14.66,2.8c-1.61.31-2.08.16-1.83-.6Zm-636.21-4.6c-9.55-2.75-23.14-8.17-28.61-11.41a68.22,68.22,0,0,1-9.59-7.09c-4.89-4.5-8.39-10.91-7.1-13,.88-1.4,4-2,6.77-1.32,2.23.56,3.84,3.25,2.65,4.44-2.76,2.76,2,9.77,10.57,15.51,7,4.69,8,4.32,5.09-1.75-1.26-2.59-1.49-3.77-.89-4.71,1-1.62,4-2.42,6.18-1.63,1.4.52,1.68,1.2,1.68,4.07s.42,3.9,3,6.73c3.45,3.74,9.72,7.29,16.11,9.11,4.4,1.26,5.23,2.78,1.44,2.63A45.28,45.28,0,0,1,271.72,474.68Zm21.72.54c-7.19-1.41-15.35-5.75-18.86-10-5.08-6.22-5.9-10.11-3.33-15.7,3.68-8,8.07-8.83,34.05-6.75,7,.57,10.37-.05,12.66-2.34,2.61-2.61,2.53-6.94-.13-7.95-2.91-1.11-5.56-.16-6.12,2.18-.81,3.4-1.78,4.13-3.47,2.59-3.84-3.47-3.06-7.38,2.08-10.39,3.63-2.13,5.36-2.32,9.77-1.1,7.45,2.07,9.61,9,4.61,14.84-2.25,2.63-3.37,3.25-7.75,4.25a89.05,89.05,0,0,1-12.69,1.55c-12.9.64-18.25,3.14-20,9.34-1.16,4.17.13,7.39,4.29,10.68,6.46,5.12,17.48,7.17,32.7,6.09,5.21-.37,10.37-.86,11.47-1.09,1.75-.36,3.63.72,2.77,1.58-2.5,2.5-32.57,4.11-42.08,2.25Zm246.21-14.15C537,458.81,536.2,453.79,538,451c1.63-2.48,3.16-2.42,4.4.18.87,1.81,1.44,2.08,4.4,2.08,3.21,0,3.41-.13,3.65-2.27.22-2-.43-2.89-5.22-7.23-5.4-4.9-5.49-5-5.84-9.3q-.71-8.39,5.13-13.65c3.24-2.93,8-4.57,11-3.81,2.62.66,2,2-1.32,3a10.94,10.94,0,0,0-5,3.71c-2.28,2.87-2.79,5.27-2.36,11.06.18,2.37,3.26,9.28,5.3,11.87s1.94,5.17-.16,9.3c-3,5.91-8.64,8.28-12.26,5.16Zm104.62-.68c-2.29-.87-5.15-6-5.15-9.24,0-1.36,1-3.1,3.14-5.25,5-5.15,6.18-9.44,4.35-16-.88-3.17-5.07-8-6.94-8a3.28,3.28,0,0,1-2.11-1.19c-2.18-2.62,2.94-3.08,7.62-.68,5.78,3,10.37,11,9.36,16.29-.94,4.92-2.21,6.4-7.38,8.59-4.15,1.77-5,2.45-5.42,4.35-1,4.76,4.09,6.87,7.77,3.19,2.6-2.6,4.28-1.65,4.6,2.59.19,2.56-.08,3.3-1.55,4.27A9.82,9.82,0,0,1,644.27,460.39Zm-265.09-34a2.65,2.65,0,0,0-2-.75c-3.59,0-13.18-4.67-16.81-8.18-6-5.77-8.2-12.87-5-16,2.17-2.18,3.12-1.92,7,1.89S369,407.83,369,405c0-1-1.23-2.94-3-4.69-2-1.95-3-3.63-3-4.93,0-1.87,1.19-3.78,2.36-3.78s2.93,2.51,3,4.41a12.78,12.78,0,0,0,1.88,5.05c3.27,5.31,2,8.7-3.34,8.7-2.57,0-3.27.32-3.78,1.68a5.94,5.94,0,0,0-.26,3c1,3.77,11.19,9,19.6,10.07a14.66,14.66,0,0,1,5.3,1.54c1.23.93.85,1.05-3.3,1.08-2.58,0-4.9-.32-5.15-.74Zm115-30c-6.68-1.66-16.82-8.14-21-13.4-5.13-6.49-7.22-18.32-4.78-27,1.58-5.6,6.5-14.06,10.21-17.56,5-4.66,15.05-8.06,24.27-8.17,6.71-.09,19.21,5.74,21.07,9.83.5,1.09,1.66,3.35,2.59,5,2.33,4.19,2.31,13-.05,17.53-3,5.77-8.7,8.26-13.94,6.07-6.35-2.65-6.68-8.28-.59-10.07,2.46-.72,3.77-1.65,4.73-3.35,2.67-4.75,1.08-12-3.4-15.38-9.35-7.13-25.38-5.48-34,3.5-5.45,5.69-9,14.14-8.93,21.31,0,4.33,1.64,11.22,2.7,11.57.39.13.69-3.79.69-9,0-10.07.31-11.08,5.7-19.06,2.64-3.91,5.2-5.49,11.29-6.94s7.57-1.31,11.53,1.4c5.56,3.79,6.69,8.44,2.77,11.36-2.28,1.69-4.88,1.27-5.57-.92s-6-4-9.9-3.39c-2.7.41-4,1.25-7.39,4.81s-4.26,5-5.05,8.79c-1.29,6.24-.6,13.1,1.83,18.06,3.26,6.68,6,7.85,4.22,1.81a46.93,46.93,0,0,1-1.29-8.27c-.27-4.06,0-5.62,1.27-8.17,3.06-6,11.07-8.29,14.35-4.11,1.87,2.37,2,5,.38,6.65s-2.51,1.5-4.2,0c-2.18-2-4.83-.79-6.65,3a13.73,13.73,0,0,0-.49,11.5c1.14,2.72,5.87,7.94,7.2,7.94,1.71,0,8.37,3.38,8.12,4.12s-5.22,1.28-7.71.66Zm88.59-.15c-.55-.9,9.88-7.17,10.89-6.54,1.2.74,1,1.9-.53,2.46a40.59,40.59,0,0,0-4.69,2.63c-3.51,2.21-5,2.58-5.67,1.45Zm107.5.06c-.69-1.12.14-1.48,5.26-2.31,9.84-1.58,19.65-7.41,23.81-14.14,2.25-3.64,3.74-9.67,3.74-15.1,0-11.91-6.82-22.26-16.56-25.11-5.42-1.58-14-1.63-17.53-.09a22.58,22.58,0,0,0-9.88,9.12c-2.62,5.14-.29,11.92,4.09,11.92,2.47,0,5.09,2.07,5.09,4,0,2.93-3.07,5.87-6.61,6.35-4.14.55-10.47-2.42-12.76-6-7.45-11.64-.75-26.84,13.92-31.56,4.32-1.39,6.62-1.66,12-1.44,6.76.28,7.22.42,18.3,5.83a19.67,19.67,0,0,1,5,4.11c8.86,10.26,11.29,25.9,5.73,36.9a37.41,37.41,0,0,1-4.34,6.87,43.68,43.68,0,0,1-14.34,9.1c-5.12,1.82-14.2,2.76-15,1.54Zm10.13-5.71c0-.55,3.22-5.55,5.33-8.27,2.4-3.1,2.71-7.21.85-11.41-1.77-4-4-5.23-8.72-4.87-2.67.2-3.06,0-3.54-1.75-.78-2.83,1-6.57,3.42-7.18,7.25-1.82,14.78,5.38,14.76,14.12,0,3.4-2.76,10.44-5.08,13-2,2.21.29,1.51,3.09-1,5.19-4.56,7.86-15,5.79-22.68-1.21-4.45-6.09-9.39-10.44-10.56-5.13-1.39-12,.5-13.79,3.74-1.2,2.25-3.56,1.87-4.93-.8-1-1.94-1-2.71-.25-4.92a14.11,14.11,0,0,1,2.91-4.5c1.67-1.6,2.83-1.92,7.82-2.16,3.22-.15,6,0,6.26.39a14.86,14.86,0,0,0,3.57,2.25,26.37,26.37,0,0,1,10.64,11.25c1.19,2.61,1.55,5,1.57,10.21,0,6.1-.23,7.33-2.35,11.73-2.72,5.65-5,8.25-9.54,10.89-3.22,1.88-7.37,3.27-7.37,2.47Zm-103.17-9.32c-.28-.28-.51-3.15-.51-6.39,0-4.87-.24-6.06-1.4-6.87a11.78,11.78,0,0,1-2.69-3.49c-1.25-2.43-1.39-2.49-4.84-2-7,1-10,3-14.75,9.75-1.06,1.51-2,1.94-4.29,1.94-3.94,0-5.2-.58-6.38-2.93-2.15-4.31.89-8.73,8.45-12.26l4.34-2-4.09-1.23c-4.38-1.31-10.13-4.68-12.75-7.47-4.94-5.25-9-17.56-8.21-24.61.57-4.84,1.17-6.11,4.81-10.14,5.48-6.07,9.91-6.71,15.49-2.24,1.18.95,1.46.69,2.89-2.65a17.45,17.45,0,0,1,9.42-9.84c6.63-3.13,10.7-2.22,14,3.14a9,9,0,0,1-.17,9.4c-.61,1-.48,1.79.52,3.31,1.57,2.4,2,2.46,4.2.64,1.71-1.38,1.71-1.39.35-4.94-1.63-4.29-.82-8.18,2.32-11.13,1.66-1.55,2.7-1.84,6.64-1.81,5.76.05,8.86,1.58,11.84,5.86,4.83,6.93,4.12,6.49,6.6,4.13,3-2.83,6.2-2.76,9.57.19,1.42,1.25,3,2.27,3.45,2.27s1.2.94,1.62,2.08,1.25,3.11,1.86,4.36c2,4.17,2.68,12,1.42,16.85-2.16,8.31-10,17.29-19,21.73l-4.58,2.26,4.26,2.15c10,5,11.71,7.22,9.66,12.11-1.33,3.2-3.19,3.88-9.2,3.38-4.58-.38-7.17-2.11-7.17-4.79,0-2.15-2-3.38-9.44-5.95l-6-2.08-1.31,1.76c-.72,1-2.08,2.76-3,4-1.64,2.12-1.81,3.1-2.06,11.6-.06,2.34-.73,3.05-1.83,1.95Zm36.42-9.48c1.59-1.59,1.06-4.92-1-6.56-4.41-3.47-8.47-4.79-15.09-4.91-7-.12-8.41.83-3.21,2.15,4.68,1.19,8.32,3.48,9.65,6.09.63,1.23,1.42,2.67,1.75,3.19.76,1.21,6.72,1.23,7.92,0Zm-61.14-2.89c1.67-3.28,7.76-8.24,10.21-8.33a12.72,12.72,0,0,0,3.79-1.09l2.27-1-3.3-.06c-7-.13-17.55,4-20.09,7.87-1.91,2.92-.48,5.69,2.92,5.69C570.66,371.93,571.17,371.56,572.53,368.89Zm49.94-14.15c3.78-1.32,11.39-6.46,14.5-9.79a38.8,38.8,0,0,0,4.51-7.08c2.13-4.22,2.49-5.72,2.52-10.59s-.3-6.35-2.23-10.22c-2.3-4.61-6-7.94-8.85-7.94-2.08,0-5.15,3.39-5.15,5.69,0,1.94,1.18,3.31,6.67,7.78,5.81,4.73,3.35,16-5.27,24-4,3.75-8.6,7.14-9.64,7.14-1.31,0-4.62,1.73-4.62,2.41s2.8.23,7.56-1.43Zm-43.89-.13c0-.36-1-1.06-2.12-1.54-2-.81-8.4-6.43-10.56-9.22a37.92,37.92,0,0,1-2.83-6.43c-3.05-8.41-2.24-14.36,2.13-15.52,3.2-.86,4.3-2.11,4.3-4.9,0-3.08-1.57-4.1-6.3-4.1-2.91,0-3.7.37-5.69,2.63-2.66,3-3.56,6.44-3.41,12.89s1.34,10.16,4.63,15.05a24,24,0,0,0,11.9,9.59,17.28,17.28,0,0,1,3.75,1.62C575.35,355.49,578.58,355.44,578.58,354.61Zm21.84-5.9c1.58-7.85.83-13.86-1.72-13.86-1.93,0-2.91,4.26-2.58,11.17.17,3.65.59,7.07.91,7.6,1.06,1.71,2.48-.36,3.39-4.91Zm7.44,1.84c3.56-4.75,4.38-6.57,5.89-13.1,2.74-11.82,0-21-6.52-22-2.18-.35-3.09-.1-4.39,1.2-2.14,2.14-1.93,6.35.34,6.69,4.09.61,4.8,1,5.6,3.3,1.93,5.56-.4,16.53-5.82,27.32-.16.32.21.57.82.57S606.22,352.73,607.86,350.55Zm5,2.35c3.43-2.26,7.7-7.72,10.59-13.51,2.21-4.44,2.47-5.71,2.72-13,.32-9.19-.74-13.58-4.51-18.79-4.73-6.52-16.09-8.4-18-3-.85,2.43,0,6.65,1.59,7.64s5.42.72,7.16-.51a3.65,3.65,0,0,1,2.78-.69c2,.76,4.91,5.26,5.85,9,1.07,4.26.46,14.48-1.08,18-.58,1.34-1.63,3.79-2.33,5.46a28.34,28.34,0,0,1-4.64,6.64c-4.49,4.81-4.53,5.61-.15,2.71Zm-29.59-3.68a31.77,31.77,0,0,1-7.42-17.31c-.82-7.84,2-16.71,6.77-21.14l1.87-1.76,1.89,1.89c1.64,1.64,2.25,1.8,4.68,1.25,2.86-.64,4.89-2.52,4.93-4.55s-2.94-6-5-6.52c-2.44-.62-7.74,1.18-10.83,3.67-5,4.05-9.12,14.22-9.12,22.76a34.72,34.72,0,0,0,1.39,8.59c1.43,4.55,5.67,11.8,8.17,14a29.08,29.08,0,0,0,6.21,3.65A44.66,44.66,0,0,0,583.24,349.22Zm8.16,1.23c-2.72-4.6-4.38-12.52-3.81-18.08.66-6.39,2.28-8.88,5.78-8.88,2.09,0,2.83-.39,3.51-1.89A5,5,0,0,0,594,315c-1.66-.75-2.42-.66-4.73.58-4.38,2.35-5.8,6.05-5.8,15.1,0,9.56,1.57,14.84,5.8,19.64C592.86,354.36,593.74,354.42,591.4,350.45Zm-12.51.1c-.8-.93-2-2.23-2.74-2.89a35.11,35.11,0,0,1-3.9-6.07A23.74,23.74,0,0,1,569.11,331c-.65-7.1-1.08-8-3.39-6.73-1.6.85-1.68,1.28-1.35,7.08.29,5.23.71,6.78,2.76,10.2,3,5,9.43,10.7,12.14,10.72C580.07,352.25,580,351.83,578.89,350.55ZM594,344.87c-.29-5.9-.13-6.95,1.44-9.64,2.34-4,3.77-4.15,5.94-.61,1.39,2.26,1.77,3.95,1.76,7.9,0,9.33,3.15,3.29,4-7.62.5-6.53-.34-9.14-3-9.14a6.17,6.17,0,0,1-3.38-1.64L599,322.47l-1.75,1.65a6.47,6.47,0,0,1-3.74,1.64c-2.48,0-2.84.59-3.55,5.86-.77,5.67,2.18,19.87,4.12,19.87a55.54,55.54,0,0,0-.13-6.62Zm29.63,3.76c7.17-5.43,11.2-12.57,11.2-19.87,0-3.33-1.84-6-4.11-6-1.12,0-1.4.59-1.4,3,0,6.52-3.61,16.37-8,21.67C617.15,352.49,617.93,352.92,623.59,348.63Zm-7.51-6.6c3.4-6.95,3.86-22.63.77-26-1.56-1.72-3.46-2.09-3.46-.67a19.23,19.23,0,0,0,1.7,4.35c1.39,2.81,1.71,4.73,1.71,10.29,0,6.72-.66,9.41-3.88,15.8-1,2-1,2.1,0,1.25A21.39,21.39,0,0,0,616.08,342Zm-32.94,1.33c-.35-1.15-1.06-3.22-1.57-4.62-2.06-5.65,0-18,4-23.72.49-.71.65-1.53.35-1.83-1.15-1.15-4.22,1.55-5.93,5.21-2.52,5.38-2.52,16.52,0,22.11,1.4,3.08,2.69,4.84,3.64,4.92a9,9,0,0,0-.5-2.07Z"/></svg>