<svg xmlns="http://www.w3.org/2000/svg" version="1.1" xmlns:xlink="http://www.w3.org/1999/xlink" xmlns:svgjs="http://svgjs.dev/svgjs" viewBox="0 0 2400 800"><g fill="#4220060a" transform="matrix(1,0,0,1,7.6488037109375,336.5263214111328)"><path d="M-10,10C54.58333333333333,16.041666666666664,172.91666666666666,50.04166666666667,300,39C427.08333333333337,27.958333333333332,475,-45.291666666666664,600,-43C725,-40.708333333333336,775,47.708333333333336,900,50C1025,52.291666666666664,1075,-36.375,1200,-32C1325,-27.625,1375,64.125,1500,71C1625,77.875,1675,5.166666666666667,1800,1C1925,-3.166666666666667,1975,49.958333333333336,2100,51C2225,52.041666666666664,2285.4166666666665,-66.70833333333333,2400,6C2514.5833333333335,78.70833333333333,3254.1666666666665,213.75,2650,400C2045.8333333333335,586.25,156.25,795.8333333333334,-500,900" transform="matrix(1,0,0,1,0,35)" opacity="NaN"></path></g></svg>