<svg width="200" height="200" viewBox="0 0 200 200" stroke="#41403e" fill="none" stroke-width="2.5" stroke-linecap="round" stroke-linejoin="round"  xmlns="http://www.w3.org/2000/svg">
    <path fill="#f8f5f3" stroke="none" transform="translate(-10,-10)" d="M80.194 76.89c-13.387-6.132-21.016-14.115-32.48-27.129 10.239 13.757 15.354 22.952 18.862 38.3 1.417 6.202-.608 12.736-5.372 16.955-8.343 7.388-14.902 10.659-26.204 15.417 9.484-2.322 16.623-3.723 24.406-3.914 10.736-.264 18.475 10.278 14.141 20.104-2.57 5.828-5.865 11.167-9.65 18.377 8.046-13.787 13.267-22.51 26.451-31.311 5.653-3.773 13.012-3.621 18.812-.079 14.058 8.583 22.173 15.722 34.493 27.165-10.051-10.303-16.207-17.342-20.733-28.275-2.642-6.38-.807-13.73 4.349-18.324 11.059-9.853 21.67-14.612 38.731-21.384-15.163 5.194-24.877 7.946-38.833 6.691-5.941-.534-11.248-4.244-13.345-9.829-4.55-12.123-2.402-21.279 2.475-35.654-5.344 13.086-9.591 21.155-17.659 29.439-4.793 4.922-12.198 6.312-18.444 3.45Z"/><path d="M80.194 76.89c-13.387-6.132-21.016-14.115-32.48-27.129 10.239 13.757 15.354 22.952 18.862 38.3 1.417 6.202-.608 12.736-5.372 16.955-8.343 7.388-14.902 10.659-26.204 15.417 9.484-2.322 16.623-3.723 24.406-3.914 10.736-.264 18.475 10.278 14.141 20.104-2.57 5.828-5.865 11.167-9.65 18.377 8.046-13.787 13.267-22.51 26.451-31.311 5.653-3.773 13.012-3.621 18.812-.079 14.058 8.583 22.173 15.722 34.493 27.165-10.051-10.303-16.207-17.342-20.733-28.275-2.642-6.38-.807-13.73 4.349-18.324 11.059-9.853 21.67-14.612 38.731-21.384-15.163 5.194-24.877 7.946-38.833 6.691-5.941-.534-11.248-4.244-13.345-9.829-4.55-12.123-2.402-21.279 2.475-35.654-5.344 13.086-9.591 21.155-17.659 29.439-4.793 4.922-12.198 6.312-18.444 3.45Z"/>
</svg>